<?xml version="1.0" encoding="UTF-8" standalone="no"?>
<svg
   xmlns:dc="http://purl.org/dc/elements/1.1/"
   xmlns:cc="http://creativecommons.org/ns#"
   xmlns:rdf="http://www.w3.org/1999/02/22-rdf-syntax-ns#"
   xmlns:svg="http://www.w3.org/2000/svg"
   xmlns="http://www.w3.org/2000/svg"
   xmlns:xlink="http://www.w3.org/1999/xlink"
   xmlns:sodipodi="http://sodipodi.sourceforge.net/DTD/sodipodi-0.dtd"
   xmlns:inkscape="http://www.inkscape.org/namespaces/inkscape"
   sodipodi:docname="bus-2.svg"
   inkscape:version="1.0 (4035a4fb49, 2020-05-01)"
   id="svg8"
   version="1.1"
   viewBox="0 0 338.66667 190.5"
   height="720"
   width="1280">
  <defs
     id="defs2" />
  <sodipodi:namedview
     inkscape:window-maximized="1"
     inkscape:window-y="0"
     inkscape:window-x="0"
     inkscape:window-height="1028"
     inkscape:window-width="1680"
     inkscape:snap-global="false"
     units="px"
     showgrid="true"
     inkscape:document-rotation="0"
     inkscape:current-layer="layer1"
     inkscape:document-units="px"
     inkscape:cy="360"
     inkscape:cx="640"
     inkscape:zoom="0.83828125"
     inkscape:pageshadow="2"
     inkscape:pageopacity="0.0"
     borderopacity="1.0"
     bordercolor="#666666"
     pagecolor="#ffffff"
     id="base">
    <inkscape:grid
       id="grid974"
       type="xygrid" />
  </sodipodi:namedview>
  <metadata
     id="metadata5">
    <rdf:RDF>
      <cc:Work
         rdf:about="">
        <dc:format>image/svg+xml</dc:format>
        <dc:type
           rdf:resource="http://purl.org/dc/dcmitype/StillImage" />
        <dc:title></dc:title>
      </cc:Work>
    </rdf:RDF>
  </metadata>
  <g
     id="layer1"
     inkscape:groupmode="layer"
     inkscape:label="Layer 1">
    <g
       id="use1069-7"
       transform="matrix(1.0538719,0,0,1.0538719,72.767707,5.342408)">
      <path
         transform="scale(0.26458333)"
         d="m 899.3457,68.705078 c -0.10184,-0.003 -0.20308,0.01485 -0.30468,0.06445 -3.54909,1.262929 -6.74467,4.352586 -10.8125,3.308594 -12.80848,-2.288908 -26.15997,-1.103941 -39.06055,-0.494141 -32.84799,2.467975 -65.76882,3.860889 -98.59375,6.648438 -44.67417,3.488307 -89.51202,3.893863 -134.28906,5.101562 -49.44855,1.211165 -98.90122,2.161361 -148.35547,3.083985 -13.98441,0.303912 -27.81652,1.035999 -41.72461,1.9375 -14.89006,0.258293 -29.70327,-1.740854 -44.5293,-2.835938 -6.97156,-0.487041 -13.76154,-2.142539 -20.60547,-3.404297 -3.20159,-0.271823 -7.53408,-0.918364 -11.02148,0.15625 -3.99477,2.213466 -3.46581,7.391297 -3.87695,11.097657 -1.05406,19.432242 -3.17014,38.989352 -4.33399,58.265632 -0.56771,7.68071 0.12212,15.04186 2.60352,22.39453 0.71187,3.15925 2.62667,6.26625 1.23242,9.50781 -2.4743,11.05481 -4.22592,22.23205 -4.36524,33.4043 0.005,4.69211 -0.49614,9.86271 2.57032,13.80859 1.94482,3.17922 3.1564,7.02003 6.07421,9.47852 25.99569,1.99693 52.24119,2.05512 78.35157,3.10156 2.60466,0.70152 5.14157,-0.26798 6.86719,-2.27149 1.79376,-2.08099 4.85892,-0.74768 7.29101,-1.11718 0.6553,7.71213 1.89675,15.39254 7.09961,21.45507 4.70914,5.97063 11.51356,10.71793 19.3418,10.97071 10.49431,0.92355 22.22874,-0.81587 29.88281,-8.71094 5.68815,-5.28053 7.07644,-13.32539 7.24414,-20.73242 -0.19767,-2.979 1.63705,-6.6577 5.12109,-6.02149 7.41067,1.2556 14.59238,3.79281 22.11719,4.51758 13.04799,1.65768 26.60548,0.99897 39.98047,1.27735 15.7697,-0.15338 31.39006,-1.11238 47.07812,-2.41993 14.46233,-0.91027 29.12503,0.36323 43.30665,-1.91796 18.2011,-1.3379 36.47881,0.049 54.66015,1.07421 4.40512,0.29243 8.81008,0.57259 13.21289,0.89844 0.2177,8.74596 -0.49984,17.5622 0.54883,26.25977 2.09692,7.90679 6.91843,15.82467 14.55859,19.38281 5.30979,2.47206 11.56369,2.12399 16.6543,-0.7168 10.71851,-5.58408 20.55772,-13.37573 27.47656,-23.36133 2.90506,-4.98946 3.46503,-10.43529 3.68946,-16.16601 -0.79646,-2.97689 0.98299,-3.3516 3.52343,-2.95508 3.0491,-1.04567 2.09707,1.83964 4.51563,1.94336 8.82183,0.81408 17.62792,2.05703 26.13477,4.62305 9.56496,2.75277 18.68975,3.0417 28.53515,3.51367 12.06796,0.82796 24.0196,0.82939 35.98438,-0.36133 6.64006,-0.76527 13.68075,-0.72279 19.81054,-3.67578 2.27796,-1.14613 3.44062,-3.80779 2.18555,-6.12109 -1.57901,-7.49903 -0.78975,-15.24902 -1.93555,-22.81641 -3.08179,-21.89196 -1.95792,-44.05809 -2.26172,-66.0918 -0.17688,-22.15378 -0.003,-44.32116 -0.79882,-66.462891 -0.0703,-7.21914 -3.99533,-14.237926 -9.90821,-18.291016 -0.26815,-0.120614 -0.56946,-0.320934 -0.875,-0.330078 z M 581.54688,110.3125 c 4.12985,0.13787 8.26065,0.27094 12.39062,0.40625 9.65061,0.28309 19.27431,0.64854 28.90039,1.33398 4.44125,0.27549 8.83237,0.86405 13.23242,1.25391 16.49174,1.56699 32.97279,2.75073 49.47266,4.33008 v 10.93945 c -1.46343,5.61396 -2.48872,11.33955 -3.49219,17.05469 -0.73901,3.75133 -1.33947,7.54728 -2.41992,11.21875 -0.35713,1.3314 -1.824,1.72505 -2.99414,2.05273 -0.76029,0.25769 -1.69949,0.32951 -2.36914,0.61524 -4.25522,0.70862 -8.56609,1.05557 -12.87891,1.08203 -2.65213,-0.0315 -5.36381,0.0548 -7.94726,-0.62891 -1.27563,-0.30924 -2.09147,-1.56666 -2.02344,-2.84961 -0.10352,-1.83896 0.85708,-3.48581 1.05664,-5.27734 0.63685,-5.3749 0.551,-10.80862 0.37109,-16.20898 -0.0249,-0.57317 -0.0868,-1.58883 -0.11328,-2.15625 -0.0989,-1.43169 -0.20209,-2.86487 -0.38086,-4.28907 -0.0567,-0.49572 -0.15323,-1.23841 -0.21484,-1.58007 -0.49092,-2.62319 -1.24186,-5.33575 -2.96094,-7.4375 -0.32957,0.62759 -0.4989,1.32611 -0.6875,2.00585 -1.43157,6.09634 -2.05965,12.349 -2.54687,18.58204 -0.51474,6.33407 -0.16909,12.68804 -0.0977,19.03125 -10.13938,-0.21117 -20.27863,-0.42828 -30.41797,-0.64258 0.0261,-0.61376 0.0517,-1.22808 0.0781,-1.8418 0.31362,-4.65846 0.0718,-9.32563 -0.2461,-13.97656 -0.38763,-5.57211 -0.8605,-11.1953 -1.63281,-16.77539 -0.2575,-1.99223 -0.63153,-4.11783 -2.09375,-5.61524 -0.574,-0.32859 -0.34602,-1.26143 -1.09766,-0.70312 -0.11678,0.52679 -0.16029,1.06783 -0.19921,1.60547 -0.18634,3.5523 -0.003,7.20121 0.082,10.69531 0.20186,6.07955 0.54557,12.15599 0.54882,18.24023 -0.081,1.99008 0.0903,4.12558 -0.83398,5.95313 -0.61459,1.20702 -2.03642,1.47538 -3.26367,1.55664 -7.72785,0.74884 -15.49621,0.93642 -23.2461,1.36328 -0.0113,-1.4533 -0.0198,-2.90603 -0.0273,-4.35937 -0.0835,-10.46914 0.005,-20.94271 -0.51953,-31.35743 -0.10991,-3.78852 -0.65308,-7.53901 -1.13281,-11.29297 -0.0983,-0.776 -0.19666,-1.55207 -0.29492,-2.32812 z m -5.86329,0.38672 c 0.39375,-0.002 0.79288,0.003 1.18164,0.0684 1.61088,0.13693 2.77228,1.58882 2.93555,3.13476 0.43839,3.77927 0.0704,7.59466 -0.27539,11.36719 -0.76074,8.39762 -2.23599,16.72408 -3.14062,25.07227 -0.0593,0.55438 -0.14757,1.45306 -0.20313,1.93945 -0.25587,2.46108 -0.13603,4.93867 -0.18555,7.4082 -3.77537,0.0151 -7.55091,-0.005 -11.32617,0.0293 -2.81575,0.0583 -5.71576,0.16771 -8.58594,0.46289 -1.77006,0.10356 -3.59706,0.87066 -5.3457,0.2832 -1.4118,-0.49991 -1.86687,-2.17913 -1.53125,-3.51953 0.3428,-1.29808 0.40283,-2.63479 0.3125,-3.9707 -0.0747,-1.68782 -0.24064,-3.50505 -0.39258,-5.10156 -0.56643,-5.41142 -1.32226,-10.80503 -2.33007,-16.15235 -0.28389,-1.50262 -0.60828,-3.08613 -1.00782,-4.64843 -0.19226,-1.07914 -0.97036,-2.01331 -0.80859,-3.14063 0.16343,-0.80477 -0.1909,-0.67783 -0.50195,-0.11914 -0.83732,2.05221 -0.9148,4.31373 -1.14649,6.49414 -0.62392,8.58008 -0.5569,17.19469 -1.17969,25.77539 -0.2095,1.57565 -0.004,3.33035 -0.94531,4.70508 -1.34948,0.80557 -2.97835,0.74544 -4.49023,0.94727 -8.07186,0.71002 -16.17815,0.90411 -24.26758,1.33789 -0.42323,-6.8587 -0.74448,-13.72386 -1.26367,-20.57618 -0.46825,-5.53061 -0.93109,-11.11975 -2.48047,-16.47265 -0.53855,-1.28572 -0.35297,-2.936 0.82617,-3.80469 1.70445,-1.23961 3.87961,-1.50172 5.87891,-1.99219 8.60617,-1.7215 17.26548,-3.16416 25.91992,-4.62109 7.22661,-1.17884 14.50054,-2.33027 21.77734,-3.38672 4.18228,-0.56976 8.35947,-1.26819 12.57617,-1.51953 z m 110.02344,6.96484 c 4.21935,0.36452 8.44734,0.62113 12.67969,0.77344 5.60096,0.21694 11.26381,0.27123 16.91601,0.26367 3.16483,0.0787 6.3635,-0.085 9.49805,0.42383 0.83418,0.28365 1.07696,0.31667 0.4375,-0.46289 6.82224,0.10787 13.65352,-0.0329 20.4668,0.38867 3.64033,0.13746 7.21629,0.84838 10.79883,1.45117 0.0404,6.29265 -0.0398,12.58557 0.11328,18.87696 0.11792,3.08984 0.14527,6.30772 0.60547,9.42968 0.31702,1.61889 0.61804,3.61221 -0.70313,4.88282 -1.39313,1.27487 -3.37887,1.48026 -5.13476,1.94726 -7.6142,1.45017 -15.39177,1.53999 -23.10352,2.05469 0.51001,-6.28607 1.08071,-12.53209 1.49805,-18.82031 0.19842,-4.03887 0.56773,-8.12153 -0.008,-12.14453 -0.14921,-1.63612 -1.17166,-2.95119 -2.04492,-4.27149 -0.36937,-0.73013 -0.48087,-0.67766 -0.62109,0.084 -0.33986,0.69683 -0.83861,1.31357 -0.96485,2.10742 -1.30405,5.08312 -1.94263,10.30985 -2.51757,15.51758 -0.11717,1.1043 -0.22538,2.3804 -0.30664,3.38281 -0.36548,4.3714 -0.25537,8.76112 -0.32227,13.14258 -1.67486,1.1e-4 -3.35049,0.002 -5.02539,0.004 -6.23414,0.0178 -12.48193,-0.059 -18.6582,0.25586 -3.30172,0.0639 -6.53357,0.76144 -9.78321,1.27344 -0.0287,-3.42005 -0.0575,-6.83971 -0.084,-10.25977 -0.0106,-1.55308 -0.055,-2.8957 -0.16992,-4.42773 -0.0552,-0.73561 -0.13479,-1.5768 -0.24024,-2.44727 -0.082,-0.74116 -0.232,-1.6645 -0.32422,-2.27539 -0.60427,-4.11264 -2.17323,-7.99235 -2.95703,-12.06445 -0.10696,-2.29671 -0.0147,-4.61509 -0.0449,-6.91992 z m 90.60156,0.0937 c 0.81003,0.004 1.61961,0.0395 2.42579,0.13281 1.67508,0.1465 3.60496,1.0268 3.93945,2.84766 0.53563,2.92759 0.55679,5.92419 0.68945,8.89063 0.22299,7.88383 0.0963,15.77206 0.14844,23.6582 -3.19665,0.62358 -6.3862,1.30809 -9.62695,1.66601 -2.7055,0.23369 -5.53963,0.57924 -8.16602,-0.29882 -1.65105,-0.57952 -2.349,-2.38769 -2.48242,-4 -0.3961,-4.44839 -0.15502,-8.92374 -0.30469,-13.38282 -0.0215,-1.14406 -0.0756,-2.45308 -0.11523,-3.49218 -0.17549,-2.85525 -0.23705,-5.74011 -0.82227,-8.54883 -0.2914,-1.65959 -0.79833,-3.40498 -0.34766,-5.07617 0.24703,-0.75708 0.91261,-1.22011 1.67188,-1.38868 3.4817,-0.63471 7.03323,-0.76436 10.56055,-0.96093 0.80927,-0.0253 1.61969,-0.0514 2.42968,-0.0469 z m -269.28906,4.21094 c -0.78829,13.56733 -1.55521,27.13587 -2.31055,40.70508 -1.93923,0.017 -3.87912,0.0358 -5.81836,0.0547 -2.04714,0.0208 -4.21863,0.0313 -6.1875,0.0898 -1.25336,0.0518 -2.50348,0.0827 -3.67578,0.15039 -2.34848,0.0345 -4.66857,0.54013 -7.01562,0.51367 -0.85935,0.0292 -1.4634,-0.56312 -2.02734,-1.12695 -0.46175,-8.18539 -0.22504,-16.31789 -1.42383,-24.44727 -0.26865,-2.32573 -0.96341,-4.56229 -1.64063,-6.79297 -0.25221,-1.14255 -0.83576,-2.33307 -0.55078,-3.50585 0.27379,-0.45022 0.18185,-1.3353 0.87891,-1.28126 4.47934,-0.73368 9.00996,-1.11834 13.51172,-1.69335 4.5761,-0.58904 9.18916,-1.01956 13.68359,-2.10157 0.85871,-0.18803 1.71746,-0.37623 2.57617,-0.56445 z m -128.19922,0.91016 c 5.05074,0.17049 10.08853,0.77773 15.05078,1.72851 1.41702,0.38143 3.19899,0.51805 4.05079,1.87891 0.6898,1.62157 0.76045,3.42371 1.04882,5.14453 0.96159,7.72198 1.67863,15.4786 2.05469,23.25195 -0.0366,1.56522 0.34925,3.34017 -0.64844,4.69531 -0.86445,0.6734 -2.05834,0.67984 -3.11914,0.78907 -6.13504,0.43438 -12.28993,0.57498 -18.43945,0.59765 -1.44418,-0.0845 -2.97865,0.1403 -4.3457,-0.41601 -0.70893,-0.0612 -0.81512,-0.69061 -0.98633,-1.25977 -0.33449,-1.75539 -0.25512,-3.57247 -0.34961,-5.35547 -0.14891,-7.6761 -0.20712,-15.35828 0.0117,-23.0332 0.15643,-2.13109 0.0696,-4.40635 1.07617,-6.35156 0.68836,-1.32813 2.27461,-1.70381 3.65625,-1.66602 0.31316,-0.001 0.62613,-0.003 0.93945,-0.004 z m 55.18946,1.39453 v 4.00781 c -0.059,9.22711 0.18518,18.46383 -0.33008,27.68164 -0.18112,1.3988 -0.007,2.99898 -0.85938,4.19531 -0.58582,0.82213 -1.66492,0.75713 -2.57031,0.81836 -7.56813,0.13686 -15.13393,-0.24058 -22.69922,-0.40234 -0.17681,-6.54624 -0.12029,-13.10723 -0.74414,-19.63281 -0.25663,-3.7726 -1.00257,-7.41426 -1.39258,-11.16797 -0.14124,-1.09712 -0.18312,-2.24133 0.38086,-3.23633 0.62774,-0.44908 1.51555,-0.6029 2.30664,-0.67773 7.91641,-0.7276 15.86608,-1.00563 23.80078,-1.47266 z m 40.24414,1.39258 c 0.47811,0.0667 0.0398,0.96863 0.10742,1.41015 -1.15529,11.87402 -1.97384,23.75983 -2.78516,35.6543 -4.91701,-0.11036 -9.83637,-0.18104 -14.75195,-0.33789 -5.43988,-0.14105 -10.8653,-0.53552 -16.28711,-0.98438 0.28834,-3.09097 0.69352,-6.17359 0.89648,-9.27148 0.14703,-3.96559 -0.0569,-7.94441 -0.34375,-11.83203 -0.20768,-2.62945 -0.46401,-5.3763 -0.92968,-8.05274 -0.1022,-1.08381 -0.58831,-2.07316 -0.77539,-3.13086 -0.2055,-1.53256 1.16044,-2.77826 2.59375,-2.96875 3.19627,-0.55215 6.46487,-0.36657 9.69531,-0.45312 7.43815,-0.0151 14.8763,-0.003 22.31445,-0.006 0.10999,-0.0295 0.19722,-0.0387 0.26563,-0.0273 z"
         style="fill:#fffffe;fill-opacity:1;stroke-width:0.999999"
         id="path1368" />
      <path
         sodipodi:nodetypes="csscssssassssssssssccccscssssssssccscsssssssssssssssscsssscscssssssscssssscssssscscsssssscssssssccccscssscssscsssssscsccsssssssscscsssccccsssccssscscsscssscssssscccssccsscsssssssscssssccsssscssssscccccsccsssscscccscssscsscccssssccccsccssscsccsssscsccsssscsccccsssssscsccssssssscsscccssssccccssscscccscccscsscccccccsssccscc"
         id="path1370"
         d="m 197.51678,76.224181 c -1.46719,-0.53697 -2.86819,-1.99655 -3.75182,-3.9087 -0.69592,-1.50594 -0.74902,-1.85536 -0.74902,-4.92816 v -3.30729 l -0.79375,-0.0561 c -9.2486,-0.653665 -15.01844,-0.75174 -17.5948,-0.29947 -0.94588,0.16605 -3.56526,0.28653 -5.82083,0.26775 -2.25557,-0.0188 -5.11307,0.0878 -6.35,0.23686 -1.23693,0.14906 -8.46439,0.600609 -12.7,0.5054 -4.16966,-0.09373 -7.57216,0.20778 -12.46725,-1.0588 -2.93855,-0.76035 -2.79177,-0.83685 -2.93305,1.52883 -0.17293,2.89585 -1.25034,4.71952 -3.67021,6.2124 -1.99257,1.22927 -5.84458,1.61328 -8.44282,0.84168 -1.90923,-0.56698 -4.18938,-2.81022 -4.9534,-4.87322 -1.11175,-3.00192 -0.96533,-7.4046 0.32842,-9.87549 0.39377,-0.75204 1.00786,-1.94088 1.36465,-2.64185 0.67945,-1.33491 2.20738,-2.52642 3.99727,-3.11714 1.27729,-0.42154 4.01192,-0.15426 5.42614,0.53035 2.42139,1.17218 6.05836,4.41286 5.50852,7.88945 l 0.31402,1.36037 2.40604,0.0839 c 1.32332,0.0461 4.25151,0.001 6.50708,-0.0995 2.25558,-0.10086 2.72522,-0.25216 6.21772,-0.33621 3.4925,-0.084 7.83828,-0.28703 9.65729,-0.45108 1.81901,-0.16404 5.62901,-0.32628 8.46666,-0.36053 2.83766,-0.0342 6.03064,-0.19592 7.09551,-0.35929 2.85003,-0.43724 11.481,-0.36823 15.65866,0.1252 4.24027,0.50082 3.9171,0.52856 4.89591,-0.42015 0.79486,-0.7704 0.89436,-1.01733 0.84681,-2.10146 -0.1343,-3.06225 2.92327,-4.5706 6.44844,-3.18111 3.86073,1.52176 7.34504,5.38652 8.16834,9.06025 0.32819,1.46445 0.0141,4.18336 -0.64328,5.56871 -0.73197,1.54251 -3.22415,4.05729 -5.51245,5.56244 -3.19391,2.10081 -4.64483,2.43648 -6.9248,1.60203 z m 5.22992,-5.04115 c 2.69979,-1.78339 4.9543,-4.07441 4.95113,-5.03131 -0.004,-1.0858 -1.43966,-3.42387 -3.159,-5.14321 -1.49393,-1.49393 -2.90723,-2.37851 -4.3592,-2.7284 -0.63074,-0.152 -0.71915,-0.12061 -0.47816,0.16976 0.35238,0.4246 0.17526,0.72323 -0.79515,1.34066 -0.88075,0.56039 -1.61011,1.93394 -2.16595,4.07898 -0.65479,2.52694 -0.54988,4.42697 0.3494,6.32788 1.37431,2.90499 2.46391,3.09484 5.65693,0.98564 z m -75.18385,-1.77263 c 0,1.956898 2.95919,-1.21025 3.65017,-2.63762 0.97581,-2.01578 0.57728,-4.91577 -1.14574,-8.33724 -1.05066,-2.08634 -2.34087,-3.33953 -3.85909,-3.74834 -2.36361,-0.63645 -4.17105,0.45462 -5.61651,3.39045 -0.7037,1.42927 -0.88301,2.14378 -0.96001,3.82524 -0.2099,4.58398 1.29829,7.02242 4.69921,7.5977 1.72009,0.29096 3.23197,-1.768522 3.23197,-0.0902 z m 97.99683,-2.03883 c -3.67776,-0.19741 -4.32112,-0.30137 -7.99739,-1.29233 -1.05159,-0.28346 -2.95659,-0.59148 -4.23334,-0.68449 -2.40189,-0.17498 -1.92447,-0.54095 -1.92447,-0.90221 0,-0.40546 1.22728,-0.94167 3.75587,-0.94167 h 2.56524 l -0.10909,-1.05834 c -0.2705,-2.62421 -0.45913,-8.57241 -0.50761,-16.00729 -0.0311,-4.77654 -0.18382,-8.89204 -0.3741,-10.08463 -0.3195,-2.00248 -0.19567,-3.32411 0.47729,-5.09414 0.25572,-0.67258 0.33729,-0.69623 2.40107,-0.69623 1.28041,0 2.42261,0.14477 2.85082,0.36133 0.42812,0.21652 2.02678,0.41921 3.9889,0.50576 3.89831,0.17195 4.28584,0.37431 3.76581,1.96639 -0.25468,0.77974 -0.26494,2.09247 -0.0461,5.89777 0.15485,2.69214 0.28217,7.03792 0.28293,9.65729 0.001,4.70012 0.39339,12.89835 0.6754,14.12432 0.1431,0.6221 0.17598,0.62823 2.44627,0.45623 5.32389,-0.40335 5.27884,-0.39236 5.4549,-1.33084 0.0869,-0.46336 -0.0811,-2.60834 -0.37334,-4.76662 -0.34285,-2.53181 -0.53139,-5.39733 -0.53139,-8.07611 v -4.15197 l -1.68549,-0.31056 c -0.92702,-0.17081 -2.04251,-0.23916 -2.47888,-0.15189 -1.04229,0.20846 -1.8527,-0.63541 -2.03126,-2.11513 -0.27116,-2.24716 -0.44846,-6.26079 -0.48271,-10.92774 -0.0445,-6.06856 -0.22153,-5.78619 3.79004,-6.04619 l 2.8883,-0.1872 v -0.99122 c 0,-0.54517 -0.0686,-1.33353 -0.15237,-1.7519 -0.14935,-0.74558 -0.19268,-0.76295 -2.18281,-0.87494 -3.82767,-0.21541 -11.02782,-0.1157 -15.5242,0.21497 -2.47385,0.18193 -6.28385,0.43633 -8.46666,0.56534 -4.55756,0.26934 -10.38254,0.66733 -15.34583,1.04849 -8.47438,0.65079 -19.6704,0.99689 -51.19688,1.58266 -7.78536,0.14466 -18.44146,0.414 -23.68021,0.59855 -5.23875,0.18455 -10.2989,0.33379 -11.24478,0.33164 -3.19798,-0.007 -10.437121,-0.69087 -12.748691,-1.20391 -1.26371,-0.28046 -2.46921,-0.50994 -2.67891,-0.50994 -0.48851,0 -0.71199,1.13504 -0.71199,3.61617 0,1.07939 -0.24673,4.64003 -0.54828,7.91254 -0.44195,4.79597 -0.49326,6.30467 -0.26459,7.77852 0.44557,2.87175 0.34346,4.62134 -0.5247,8.99068 l -0.80841,6.185267 0.72724,1.5313 0.72725,1.53131 5.17439,-0.0829 c 6.096831,-0.0976 15.566991,1.106065 16.796121,1.16933 l 0.54911,0.55743 -0.76946,0.6691 c -0.65812,0.572282 -0.94527,0.64798 -1.98438,0.52313 -0.6682,-0.0803 -10.42241,-0.27383 -13.914911,-0.43009 -3.4925,-0.15625 -6.59088,-0.33467 -6.88528,-0.39647 -0.31997,-0.0672 -0.83005,-0.67513 -1.26813,-1.51146 -0.40306,-0.7695 -0.91285,-1.69675 -1.13284,-2.06055 -0.52651,-0.87067 -0.35883,-6.020097 0.42898,-9.875387 l 0.58523,-2.86393 -0.62563,-2.16316 c -0.74238,-2.56687 -0.75968,-3.91581 -0.13973,-10.89796 0.24533,-2.76294 0.54045,-6.6583 0.65584,-8.65636 0.19072,-3.30264 0.26671,-3.69343 0.83606,-4.29948 0.53675,-0.57134 0.85729,-0.66664 2.24229,-0.66664 0.88881,0 2.26704,0.18203 3.06274,0.40451 0.79569,0.22248 2.69687,0.51199 4.224841,0.64335 9.96882,0.857 9.99877,0.85815 14.21431,0.54217 2.29583,-0.17209 7.9247,-0.36634 12.5086,-0.43168 4.58391,-0.0653 13.27547,-0.23014 19.31459,-0.36624 41.33741,-0.93156 41.57952,-0.94064 56.48854,-2.11855 1.89177,-0.14947 5.64224,-0.38911 8.33437,-0.53254 2.69214,-0.14343 7.26078,-0.43869 10.15255,-0.65611 6.11595,-0.45985 10.10874,-0.50316 12.07154,-0.13092 1.21733,0.23086 1.50282,0.1973 2.25015,-0.26458 0.47076,-0.29095 1.04609,-0.529 1.27852,-0.529 0.73971,0 2.2054,1.53624 2.83805,2.97464 0.59004,1.34154 0.61476,1.68728 0.69525,9.72536 0.0459,4.58391 0.0789,11.66813 0.0734,15.74271 -0.007,5.31874 0.1087,8.30388 0.41099,10.58334 0.23159,1.74625 0.41872,3.9489 0.41587,4.89479 -0.003,0.94588 0.12322,2.11976 0.28015,2.60861 0.24117,0.75125 0.20602,0.99505 -0.22708,1.57514 -0.68293,0.91471 -2.28322,1.30501 -6.69147,1.63204 -3.88021,0.28785 -4.6388,0.28706 -10.18646,-0.0107 z m 2.61023,-3.06944 1.02273,-0.16896 -0.17202,-1.21719 c -0.41597,-2.94355 -0.88782,-10.04749 -0.94197,-14.18178 -0.0324,-2.47386 -0.13618,-6.87917 -0.23061,-9.78958 l -0.17169,-5.29167 -2.64584,-0.13229 c -1.4552,-0.0728 -2.91777,-0.28748 -3.25015,-0.47715 -0.33244,-0.18971 -1.1577,-0.30875 -1.83436,-0.26459 -1.11551,0.0728 -1.24961,0.15393 -1.44029,0.87133 -0.11563,0.43509 -0.0912,1.86384 0.0542,3.175 0.15012,1.35313 0.23337,7.72973 0.19252,14.74698 l -0.072,12.36303 1.05834,0.13757 c 2.95718,0.38439 6.85116,0.4903 8.43106,0.2293 z m 10.10342,-23.70387 c -0.0924,-1.34607 -0.20836,-4.764 -0.25764,-7.5954 -0.10346,-5.94311 -0.0124,-5.75985 -2.67761,-5.38763 l -1.56208,0.21816 0.0647,7.1267 c 0.0356,3.91968 0.13093,7.19362 0.21192,7.2754 0.081,0.0818 0.88213,0.28045 1.78031,0.44146 2.86152,0.51298 2.63181,0.70864 2.44044,-2.07869 z m -104.45792,5.55625 c -0.56769,-0.56769 -0.75487,-0.5908 -4.03489,-0.49794 -1.89177,0.0536 -3.67771,0.10034 -3.96875,0.10396 -0.29105,0.004 -2.37464,-0.12652 -4.63021,-0.2892 -2.25557,-0.16268 -7.43479,-0.41753 -11.50937,-0.56633 -4.07459,-0.14881 -7.908,-0.33673 -8.5187,-0.41759 -0.75255,-0.0996 -1.377191,-0.009 -1.938391,0.28116 -0.75164,0.38869 -0.88604,0.39018 -1.45696,0.0161 -0.90413,-0.5924 -1.05053,-1.6882 -1.05053,-7.8631 0,-6.77735 -0.0979,-6.5815 3.28215,-6.56438 1.250751,0.006 2.809881,0.1308 3.464721,0.27659 0.65484,0.14578 6.50497,0.31936 13.00028,0.38572 12.92952,0.1321 11.48036,0.24148 21.26326,-1.60498 9.08895,-1.71549 11.50469,-2.01935 17.19791,-2.16327 3.43454,-0.0868 6.66763,-0.0222 8.46667,0.1693 1.60073,0.17037 4.33917,0.41511 6.08542,0.54387 1.74625,0.12876 4.42515,0.35439 5.95312,0.5014 7.24346,0.69692 10.19392,0.85976 17.06716,0.94199 4.07374,0.0487 8.59742,-0.0353 10.05263,-0.18683 3.25834,-0.33921 6.51019,-0.0778 7.33434,0.58953 0.52287,0.42339 0.55175,0.55112 0.25146,1.1122 -0.25891,0.48378 -0.26947,0.8174 -0.0446,1.40886 0.16622,0.4372 0.26719,1.98958 0.23167,3.56172 -0.0377,1.6693 0.0775,3.32517 0.2874,4.12947 0.80266,3.07595 -0.26437,4.33089 -3.68883,4.33845 -3.58723,0.008 -7.48394,0.18349 -11.25061,0.50692 -2.0373,0.17494 -4.06136,0.25467 -4.49792,0.17718 -2.81937,-0.50043 -8.46234,-0.32573 -9.46329,0.29297 -0.54771,0.33854 -5.59739,0.35212 -11.17421,0.03 -2.91042,-0.16809 -6.12511,-0.35384 -7.14375,-0.4128 -1.01865,-0.0589 -5.36443,-0.0839 -9.65729,-0.0555 -7.25649,0.048 -7.84361,0.087 -8.35143,0.55388 -0.64399,0.5921 -1.36558,0.64387 -1.94649,0.13963 -0.33987,-0.295 -1.07322,-0.31743 -3.93538,-0.12034 -2.93431,0.20205 -3.60344,0.32799 -4.03489,0.75944 -0.66264,0.66263 -0.91289,0.65073 -1.64171,-0.0781 z m -2.67129,-3.62016 1.89277,-0.0179 0.15923,-2.84427 c 0.0876,-1.56435 0.20985,-3.71978 0.27171,-4.78984 l 0.11247,-1.94557 -0.70927,0.15539 c -0.39009,0.0855 -1.95942,0.2979 -3.48739,0.47209 -1.52797,0.1742 -2.80352,0.33049 -2.83457,0.34732 -0.031,0.0168 0.12919,0.62037 0.35608,1.34118 0.24003,0.76258 0.44945,2.58283 0.50086,4.35328 0.0486,1.67349 0.0967,3.07147 0.10695,3.10663 0.0102,0.0351 0.40555,0.0134 0.87849,-0.0483 0.47295,-0.0617 1.71165,-0.12025 2.75267,-0.13007 z m -6.68717,-2.59755 c 0.0982,-1.41883 0.2519,-3.38336 0.34163,-4.36562 l 0.16313,-1.78594 h -4.16734 c -3.86546,0 -4.15347,0.0335 -3.97584,0.46302 0.3351,0.81025 0.63704,4.90528 0.47678,6.46632 l -0.15455,1.50539 1.2928,0.10057 c 0.71103,0.0553 2.31701,0.12203 3.56884,0.14826 l 2.27605,0.0477 z m 18.35627,2.20289 c 0.0781,-0.0781 0.20042,-2.16809 0.27191,-4.64451 0.13217,-4.57833 0.34913,-5.54649 1.17212,-5.23067 0.21893,0.084 0.52623,0.6689 0.68288,1.29976 0.543,2.18666 1.13408,6.92762 0.96162,7.71286 -0.1733,0.789 -0.17323,0.78905 0.84856,0.62025 0.56203,-0.0928 1.94461,-0.17013 3.07239,-0.17173 l 2.05052,-0.003 0.005,-0.85989 c 0.003,-0.47295 0.23862,-2.46724 0.52419,-4.43177 0.28557,-1.96454 0.52146,-4.25649 0.52419,-5.09323 0.005,-1.40315 -0.0413,-1.52126 -0.59033,-1.52014 -0.94072,0.002 -7.29101,0.96071 -12.58354,1.89991 -4.57457,0.81178 -4.83494,0.88964 -4.67345,1.39751 0.38557,1.21257 0.6323,3.09383 0.81291,6.19842 l 0.19079,3.27936 3.29417,-0.15565 c 1.81179,-0.0856 3.35804,-0.21951 3.43609,-0.29757 z m -37.26558,-0.30733 c 0.20588,-0.20195 -0.49113,-7.87384 -0.73777,-8.12048 -0.30866,-0.30866 -4.65317,-0.83142 -5.191831,-0.62472 -0.33043,0.1268 -0.39689,0.87736 -0.39689,4.48214 0,2.3814 0.0493,4.37944 0.10962,4.44007 0.13701,0.13779 6.068101,-0.0311 6.216871,-0.17701 z m 8.75475,-4.13464 v -4.25838 l -3.21924,0.17309 c -1.77058,0.0952 -3.25591,0.20978 -3.30074,0.2546 -0.0448,0.0448 0.0428,0.84844 0.19479,1.7858 0.15197,0.93736 0.29785,2.74213 0.32419,4.01061 l 0.0479,2.30632 2.77812,0.0749 c 1.52796,0.0412 2.86741,0.0381 2.97655,-0.007 0.10914,-0.045 0.19844,-1.99803 0.19844,-4.34013 z m 63.56868,4.05081 c 0.69262,-0.11399 1.33252,-0.28046 1.42199,-0.36994 0.0895,-0.0895 0.4452,-1.77808 0.79048,-3.75247 0.63992,-3.6591 1.18286,-5.42838 1.6658,-5.42838 0.14837,0 0.20558,0.1673 0.12711,0.37178 -0.0785,0.20448 0.12526,1.24628 0.45272,2.3151 0.40224,1.31292 0.60141,2.65912 0.61398,4.14986 l 0.0186,2.20653 0.92605,-0.1531 c 0.50932,-0.0842 2.26549,-0.15441 3.9026,-0.15601 l 2.97657,-0.003 0.0128,-1.52135 c 0.0193,-2.2922 0.65102,-6.60226 1.0356,-7.06565 0.30348,-0.36567 -0.0853,-0.40883 -3.68289,-0.40883 -2.21221,0 -5.11406,-0.11221 -6.44855,-0.24936 -1.33449,-0.13715 -4.80759,-0.43976 -7.71801,-0.67247 -2.91041,-0.23271 -6.3037,-0.54356 -7.54062,-0.69077 -1.23693,-0.14721 -4.43267,-0.33888 -7.10165,-0.42594 l -4.8527,-0.15829 0.19757,1.56143 c 0.10866,0.85879 0.20878,3.54736 0.22248,5.9746 l 0.0249,4.41317 2.77813,-0.13559 c 1.52797,-0.0746 2.94059,-0.18676 3.13917,-0.2493 0.29703,-0.0936 0.32659,-0.963 0.16673,-4.90383 -0.15565,-3.83707 -0.12504,-4.83292 0.15387,-5.00529 0.53116,-0.32828 1.213,0.16898 1.55131,1.13137 0.28867,0.82115 0.78352,6.57757 0.71127,8.27381 l -0.0338,0.79375 3.47909,0.0736 3.47909,0.0736 -0.0395,-2.19031 c -0.0488,-2.70338 0.5553,-7.42487 1.03188,-8.06543 0.33782,-0.45405 0.37694,-0.45158 0.89242,0.0563 0.29762,0.29325 0.66002,1.16871 0.80901,1.95434 0.34685,1.82894 0.34899,6.40009 0.003,7.30901 -0.14657,0.38549 -0.19907,0.80996 -0.11668,0.94327 0.17978,0.29089 3.19074,0.29307 4.94975,0.004 z m 21.01059,-1.12766 c 1.09026,-0.27465 1.10122,-0.28925 0.93172,-1.24167 -0.0943,-0.53006 -0.17406,-2.33297 -0.17718,-4.00646 l -0.006,-3.04271 -1.05833,-0.17882 c -0.58208,-0.0984 -2.10287,-0.18765 -3.37953,-0.19844 l -2.32121,-0.0196 0.43696,0.66689 c 0.46893,0.71566 0.50102,2.04399 0.15128,6.26128 l -0.19056,2.29795 2.25465,-0.13025 c 1.24007,-0.0716 2.75112,-0.25531 3.35789,-0.40816 z m 7.23115,-0.36888 0.66145,-0.12974 -0.006,-3.89611 c -0.003,-2.14286 -0.10835,-4.05931 -0.23379,-4.25879 -0.17289,-0.27493 -0.73172,-0.33352 -2.30974,-0.24217 -1.14492,0.0663 -2.13446,0.1733 -2.19898,0.23782 -0.0645,0.0645 -0.008,0.59021 0.12634,1.16821 0.13401,0.578 0.24649,2.44161 0.24996,4.14136 0.006,2.98989 0.0257,3.09443 0.60163,3.21293 0.57924,0.11917 1.76475,0.0301 3.10885,-0.23351 z"
         style="fill:#000000;stroke-width:0.264583" />
    </g>
    <g
       id="use1069"
       transform="matrix(0.63151255,0,0,0.63151255,-34.950728,2.3745775)">
      <path
         transform="scale(0.26458333)"
         d="m 899.3457,68.705078 c -0.10184,-0.003 -0.20308,0.01485 -0.30468,0.06445 -3.54909,1.262929 -6.74467,4.352586 -10.8125,3.308594 -12.80848,-2.288908 -26.15997,-1.103941 -39.06055,-0.494141 -32.84799,2.467975 -65.76882,3.860889 -98.59375,6.648438 -44.67417,3.488307 -89.51202,3.893863 -134.28906,5.101562 -49.44855,1.211165 -98.90122,2.161361 -148.35547,3.083985 -13.98441,0.303912 -27.81652,1.035999 -41.72461,1.9375 -14.89006,0.258293 -29.70327,-1.740854 -44.5293,-2.835938 -6.97156,-0.487041 -13.76154,-2.142539 -20.60547,-3.404297 -3.20159,-0.271823 -7.53408,-0.918364 -11.02148,0.15625 -3.99477,2.213466 -3.46581,7.391297 -3.87695,11.097657 -1.05406,19.432242 -3.17014,38.989352 -4.33399,58.265632 -0.56771,7.68071 0.12212,15.04186 2.60352,22.39453 0.71187,3.15925 2.62667,6.26625 1.23242,9.50781 -2.4743,11.05481 -4.22592,22.23205 -4.36524,33.4043 0.005,4.69211 -0.49614,9.86271 2.57032,13.80859 1.94482,3.17922 3.1564,7.02003 6.07421,9.47852 25.99569,1.99693 52.24119,2.05512 78.35157,3.10156 2.60466,0.70152 5.14157,-0.26798 6.86719,-2.27149 1.79376,-2.08099 4.85892,-0.74768 7.29101,-1.11718 0.6553,7.71213 1.89675,15.39254 7.09961,21.45507 4.70914,5.97063 11.51356,10.71793 19.3418,10.97071 10.49431,0.92355 22.22874,-0.81587 29.88281,-8.71094 5.68815,-5.28053 7.07644,-13.32539 7.24414,-20.73242 -0.19767,-2.979 1.63705,-6.6577 5.12109,-6.02149 7.41067,1.2556 14.59238,3.79281 22.11719,4.51758 13.04799,1.65768 26.60548,0.99897 39.98047,1.27735 15.7697,-0.15338 31.39006,-1.11238 47.07812,-2.41993 14.46233,-0.91027 29.12503,0.36323 43.30665,-1.91796 18.2011,-1.3379 36.47881,0.049 54.66015,1.07421 4.40512,0.29243 8.81008,0.57259 13.21289,0.89844 0.2177,8.74596 -0.49984,17.5622 0.54883,26.25977 2.09692,7.90679 6.91843,15.82467 14.55859,19.38281 5.30979,2.47206 11.56369,2.12399 16.6543,-0.7168 10.71851,-5.58408 20.55772,-13.37573 27.47656,-23.36133 2.90506,-4.98946 3.46503,-10.43529 3.68946,-16.16601 -0.79646,-2.97689 0.98299,-3.3516 3.52343,-2.95508 3.0491,-1.04567 2.09707,1.83964 4.51563,1.94336 8.82183,0.81408 17.62792,2.05703 26.13477,4.62305 9.56496,2.75277 18.68975,3.0417 28.53515,3.51367 12.06796,0.82796 24.0196,0.82939 35.98438,-0.36133 6.64006,-0.76527 13.68075,-0.72279 19.81054,-3.67578 2.27796,-1.14613 3.44062,-3.80779 2.18555,-6.12109 -1.57901,-7.49903 -0.78975,-15.24902 -1.93555,-22.81641 -3.08179,-21.89196 -1.95792,-44.05809 -2.26172,-66.0918 -0.17688,-22.15378 -0.003,-44.32116 -0.79882,-66.462891 -0.0703,-7.21914 -3.99533,-14.237926 -9.90821,-18.291016 -0.26815,-0.120614 -0.56946,-0.320934 -0.875,-0.330078 z M 581.54688,110.3125 c 4.12985,0.13787 8.26065,0.27094 12.39062,0.40625 9.65061,0.28309 19.27431,0.64854 28.90039,1.33398 4.44125,0.27549 8.83237,0.86405 13.23242,1.25391 16.49174,1.56699 32.97279,2.75073 49.47266,4.33008 v 10.93945 c -1.46343,5.61396 -2.48872,11.33955 -3.49219,17.05469 -0.73901,3.75133 -1.33947,7.54728 -2.41992,11.21875 -0.35713,1.3314 -1.824,1.72505 -2.99414,2.05273 -0.76029,0.25769 -1.69949,0.32951 -2.36914,0.61524 -4.25522,0.70862 -8.56609,1.05557 -12.87891,1.08203 -2.65213,-0.0315 -5.36381,0.0548 -7.94726,-0.62891 -1.27563,-0.30924 -2.09147,-1.56666 -2.02344,-2.84961 -0.10352,-1.83896 0.85708,-3.48581 1.05664,-5.27734 0.63685,-5.3749 0.551,-10.80862 0.37109,-16.20898 -0.0249,-0.57317 -0.0868,-1.58883 -0.11328,-2.15625 -0.0989,-1.43169 -0.20209,-2.86487 -0.38086,-4.28907 -0.0567,-0.49572 -0.15323,-1.23841 -0.21484,-1.58007 -0.49092,-2.62319 -1.24186,-5.33575 -2.96094,-7.4375 -0.32957,0.62759 -0.4989,1.32611 -0.6875,2.00585 -1.43157,6.09634 -2.05965,12.349 -2.54687,18.58204 -0.51474,6.33407 -0.16909,12.68804 -0.0977,19.03125 -10.13938,-0.21117 -20.27863,-0.42828 -30.41797,-0.64258 0.0261,-0.61376 0.0517,-1.22808 0.0781,-1.8418 0.31362,-4.65846 0.0718,-9.32563 -0.2461,-13.97656 -0.38763,-5.57211 -0.8605,-11.1953 -1.63281,-16.77539 -0.2575,-1.99223 -0.63153,-4.11783 -2.09375,-5.61524 -0.574,-0.32859 -0.34602,-1.26143 -1.09766,-0.70312 -0.11678,0.52679 -0.16029,1.06783 -0.19921,1.60547 -0.18634,3.5523 -0.003,7.20121 0.082,10.69531 0.20186,6.07955 0.54557,12.15599 0.54882,18.24023 -0.081,1.99008 0.0903,4.12558 -0.83398,5.95313 -0.61459,1.20702 -2.03642,1.47538 -3.26367,1.55664 -7.72785,0.74884 -15.49621,0.93642 -23.2461,1.36328 -0.0113,-1.4533 -0.0198,-2.90603 -0.0273,-4.35937 -0.0835,-10.46914 0.005,-20.94271 -0.51953,-31.35743 -0.10991,-3.78852 -0.65308,-7.53901 -1.13281,-11.29297 -0.0983,-0.776 -0.19666,-1.55207 -0.29492,-2.32812 z m -5.86329,0.38672 c 0.39375,-0.002 0.79288,0.003 1.18164,0.0684 1.61088,0.13693 2.77228,1.58882 2.93555,3.13476 0.43839,3.77927 0.0704,7.59466 -0.27539,11.36719 -0.76074,8.39762 -2.23599,16.72408 -3.14062,25.07227 -0.0593,0.55438 -0.14757,1.45306 -0.20313,1.93945 -0.25587,2.46108 -0.13603,4.93867 -0.18555,7.4082 -3.77537,0.0151 -7.55091,-0.005 -11.32617,0.0293 -2.81575,0.0583 -5.71576,0.16771 -8.58594,0.46289 -1.77006,0.10356 -3.59706,0.87066 -5.3457,0.2832 -1.4118,-0.49991 -1.86687,-2.17913 -1.53125,-3.51953 0.3428,-1.29808 0.40283,-2.63479 0.3125,-3.9707 -0.0747,-1.68782 -0.24064,-3.50505 -0.39258,-5.10156 -0.56643,-5.41142 -1.32226,-10.80503 -2.33007,-16.15235 -0.28389,-1.50262 -0.60828,-3.08613 -1.00782,-4.64843 -0.19226,-1.07914 -0.97036,-2.01331 -0.80859,-3.14063 0.16343,-0.80477 -0.1909,-0.67783 -0.50195,-0.11914 -0.83732,2.05221 -0.9148,4.31373 -1.14649,6.49414 -0.62392,8.58008 -0.5569,17.19469 -1.17969,25.77539 -0.2095,1.57565 -0.004,3.33035 -0.94531,4.70508 -1.34948,0.80557 -2.97835,0.74544 -4.49023,0.94727 -8.07186,0.71002 -16.17815,0.90411 -24.26758,1.33789 -0.42323,-6.8587 -0.74448,-13.72386 -1.26367,-20.57618 -0.46825,-5.53061 -0.93109,-11.11975 -2.48047,-16.47265 -0.53855,-1.28572 -0.35297,-2.936 0.82617,-3.80469 1.70445,-1.23961 3.87961,-1.50172 5.87891,-1.99219 8.60617,-1.7215 17.26548,-3.16416 25.91992,-4.62109 7.22661,-1.17884 14.50054,-2.33027 21.77734,-3.38672 4.18228,-0.56976 8.35947,-1.26819 12.57617,-1.51953 z m 110.02344,6.96484 c 4.21935,0.36452 8.44734,0.62113 12.67969,0.77344 5.60096,0.21694 11.26381,0.27123 16.91601,0.26367 3.16483,0.0787 6.3635,-0.085 9.49805,0.42383 0.83418,0.28365 1.07696,0.31667 0.4375,-0.46289 6.82224,0.10787 13.65352,-0.0329 20.4668,0.38867 3.64033,0.13746 7.21629,0.84838 10.79883,1.45117 0.0404,6.29265 -0.0398,12.58557 0.11328,18.87696 0.11792,3.08984 0.14527,6.30772 0.60547,9.42968 0.31702,1.61889 0.61804,3.61221 -0.70313,4.88282 -1.39313,1.27487 -3.37887,1.48026 -5.13476,1.94726 -7.6142,1.45017 -15.39177,1.53999 -23.10352,2.05469 0.51001,-6.28607 1.08071,-12.53209 1.49805,-18.82031 0.19842,-4.03887 0.56773,-8.12153 -0.008,-12.14453 -0.14921,-1.63612 -1.17166,-2.95119 -2.04492,-4.27149 -0.36937,-0.73013 -0.48087,-0.67766 -0.62109,0.084 -0.33986,0.69683 -0.83861,1.31357 -0.96485,2.10742 -1.30405,5.08312 -1.94263,10.30985 -2.51757,15.51758 -0.11717,1.1043 -0.22538,2.3804 -0.30664,3.38281 -0.36548,4.3714 -0.25537,8.76112 -0.32227,13.14258 -1.67486,1.1e-4 -3.35049,0.002 -5.02539,0.004 -6.23414,0.0178 -12.48193,-0.059 -18.6582,0.25586 -3.30172,0.0639 -6.53357,0.76144 -9.78321,1.27344 -0.0287,-3.42005 -0.0575,-6.83971 -0.084,-10.25977 -0.0106,-1.55308 -0.055,-2.8957 -0.16992,-4.42773 -0.0552,-0.73561 -0.13479,-1.5768 -0.24024,-2.44727 -0.082,-0.74116 -0.232,-1.6645 -0.32422,-2.27539 -0.60427,-4.11264 -2.17323,-7.99235 -2.95703,-12.06445 -0.10696,-2.29671 -0.0147,-4.61509 -0.0449,-6.91992 z m 90.60156,0.0937 c 0.81003,0.004 1.61961,0.0395 2.42579,0.13281 1.67508,0.1465 3.60496,1.0268 3.93945,2.84766 0.53563,2.92759 0.55679,5.92419 0.68945,8.89063 0.22299,7.88383 0.0963,15.77206 0.14844,23.6582 -3.19665,0.62358 -6.3862,1.30809 -9.62695,1.66601 -2.7055,0.23369 -5.53963,0.57924 -8.16602,-0.29882 -1.65105,-0.57952 -2.349,-2.38769 -2.48242,-4 -0.3961,-4.44839 -0.15502,-8.92374 -0.30469,-13.38282 -0.0215,-1.14406 -0.0756,-2.45308 -0.11523,-3.49218 -0.17549,-2.85525 -0.23705,-5.74011 -0.82227,-8.54883 -0.2914,-1.65959 -0.79833,-3.40498 -0.34766,-5.07617 0.24703,-0.75708 0.91261,-1.22011 1.67188,-1.38868 3.4817,-0.63471 7.03323,-0.76436 10.56055,-0.96093 0.80927,-0.0253 1.61969,-0.0514 2.42968,-0.0469 z m -269.28906,4.21094 c -0.78829,13.56733 -1.55521,27.13587 -2.31055,40.70508 -1.93923,0.017 -3.87912,0.0358 -5.81836,0.0547 -2.04714,0.0208 -4.21863,0.0313 -6.1875,0.0898 -1.25336,0.0518 -2.50348,0.0827 -3.67578,0.15039 -2.34848,0.0345 -4.66857,0.54013 -7.01562,0.51367 -0.85935,0.0292 -1.4634,-0.56312 -2.02734,-1.12695 -0.46175,-8.18539 -0.22504,-16.31789 -1.42383,-24.44727 -0.26865,-2.32573 -0.96341,-4.56229 -1.64063,-6.79297 -0.25221,-1.14255 -0.83576,-2.33307 -0.55078,-3.50585 0.27379,-0.45022 0.18185,-1.3353 0.87891,-1.28126 4.47934,-0.73368 9.00996,-1.11834 13.51172,-1.69335 4.5761,-0.58904 9.18916,-1.01956 13.68359,-2.10157 0.85871,-0.18803 1.71746,-0.37623 2.57617,-0.56445 z m -128.19922,0.91016 c 5.05074,0.17049 10.08853,0.77773 15.05078,1.72851 1.41702,0.38143 3.19899,0.51805 4.05079,1.87891 0.6898,1.62157 0.76045,3.42371 1.04882,5.14453 0.96159,7.72198 1.67863,15.4786 2.05469,23.25195 -0.0366,1.56522 0.34925,3.34017 -0.64844,4.69531 -0.86445,0.6734 -2.05834,0.67984 -3.11914,0.78907 -6.13504,0.43438 -12.28993,0.57498 -18.43945,0.59765 -1.44418,-0.0845 -2.97865,0.1403 -4.3457,-0.41601 -0.70893,-0.0612 -0.81512,-0.69061 -0.98633,-1.25977 -0.33449,-1.75539 -0.25512,-3.57247 -0.34961,-5.35547 -0.14891,-7.6761 -0.20712,-15.35828 0.0117,-23.0332 0.15643,-2.13109 0.0696,-4.40635 1.07617,-6.35156 0.68836,-1.32813 2.27461,-1.70381 3.65625,-1.66602 0.31316,-0.001 0.62613,-0.003 0.93945,-0.004 z m 55.18946,1.39453 v 4.00781 c -0.059,9.22711 0.18518,18.46383 -0.33008,27.68164 -0.18112,1.3988 -0.007,2.99898 -0.85938,4.19531 -0.58582,0.82213 -1.66492,0.75713 -2.57031,0.81836 -7.56813,0.13686 -15.13393,-0.24058 -22.69922,-0.40234 -0.17681,-6.54624 -0.12029,-13.10723 -0.74414,-19.63281 -0.25663,-3.7726 -1.00257,-7.41426 -1.39258,-11.16797 -0.14124,-1.09712 -0.18312,-2.24133 0.38086,-3.23633 0.62774,-0.44908 1.51555,-0.6029 2.30664,-0.67773 7.91641,-0.7276 15.86608,-1.00563 23.80078,-1.47266 z m 40.24414,1.39258 c 0.47811,0.0667 0.0398,0.96863 0.10742,1.41015 -1.15529,11.87402 -1.97384,23.75983 -2.78516,35.6543 -4.91701,-0.11036 -9.83637,-0.18104 -14.75195,-0.33789 -5.43988,-0.14105 -10.8653,-0.53552 -16.28711,-0.98438 0.28834,-3.09097 0.69352,-6.17359 0.89648,-9.27148 0.14703,-3.96559 -0.0569,-7.94441 -0.34375,-11.83203 -0.20768,-2.62945 -0.46401,-5.3763 -0.92968,-8.05274 -0.1022,-1.08381 -0.58831,-2.07316 -0.77539,-3.13086 -0.2055,-1.53256 1.16044,-2.77826 2.59375,-2.96875 3.19627,-0.55215 6.46487,-0.36657 9.69531,-0.45312 7.43815,-0.0151 14.8763,-0.003 22.31445,-0.006 0.10999,-0.0295 0.19722,-0.0387 0.26563,-0.0273 z"
         style="fill:#fffffe;fill-opacity:1;stroke-width:0.999999"
         id="path1356" />
      <path
         sodipodi:nodetypes="csscssssassssssssssccccscssssssssccscsssssssssssssssscsssscscssssssscssssscssssscscsssssscssssssccccscssscssscsssssscsccsssssssscscsssccccsssccssscscsscssscssssscccssccsscsssssssscssssccsssscssssscccccsccsssscscccscssscsscccssssccccsccssscsccsssscsccsssscsccccsssssscsccssssssscsscccssssccccssscscccscccscsscccccccsssccscc"
         id="path1358"
         d="m 208.56065,93.015131 c -1.46719,-0.53697 -2.86819,-1.99655 -3.75182,-3.9087 -0.69592,-1.50594 -0.74902,-1.85536 -0.74902,-4.92816 v -3.30729 l -0.79375,-0.0561 c -9.2486,-0.653665 -15.01844,-0.75174 -17.5948,-0.29947 -0.94588,0.16605 -3.56526,0.28653 -5.82083,0.26775 -2.25557,-0.0188 -5.11307,0.0878 -6.35,0.23686 -1.23693,0.14906 -8.46439,0.600609 -12.7,0.5054 -4.16966,-0.09373 -7.57216,0.20778 -12.46725,-1.0588 -2.93855,-0.76035 -2.79177,-0.83685 -2.93305,1.52883 -0.17293,2.89585 -1.25034,4.71952 -3.67021,6.2124 -1.99257,1.22927 -5.84458,1.61328 -8.44282,0.84168 -1.90923,-0.56698 -4.18938,-2.81022 -4.9534,-4.87322 -1.11175,-3.00192 -0.96533,-7.4046 0.32842,-9.87549 0.39377,-0.75204 1.00786,-1.94088 1.36465,-2.64185 0.67945,-1.33491 2.20738,-2.52642 3.99727,-3.11714 1.27729,-0.42154 4.01192,-0.15426 5.42614,0.53035 2.42139,1.17218 6.05836,4.41286 5.50852,7.88945 l 0.31402,1.36037 2.40604,0.0839 c 1.32332,0.0461 4.25151,0.001 6.50708,-0.0995 2.25558,-0.10086 2.72522,-0.25216 6.21772,-0.33621 3.4925,-0.084 7.83828,-0.28703 9.65729,-0.45108 1.81901,-0.16404 5.62901,-0.32628 8.46666,-0.36053 2.83766,-0.0342 6.03064,-0.19592 7.09551,-0.35929 2.85003,-0.43724 11.481,-0.36823 15.65866,0.1252 4.24027,0.50082 3.9171,0.52856 4.89591,-0.42015 0.79486,-0.7704 0.89436,-1.01733 0.84681,-2.10146 -0.1343,-3.06225 2.92327,-4.5706 6.44844,-3.18111 3.86073,1.52176 7.34504,5.38652 8.16834,9.06025 0.32819,1.46445 0.0141,4.18336 -0.64328,5.56871 -0.73197,1.54251 -3.22415,4.05729 -5.51245,5.56244 -3.19391,2.10081 -4.64483,2.43648 -6.9248,1.60203 z m 5.22992,-5.04115 c 2.69979,-1.78339 4.9543,-4.07441 4.95113,-5.03131 -0.004,-1.0858 -1.43966,-3.42387 -3.159,-5.14321 -1.49393,-1.49393 -2.90723,-2.37851 -4.3592,-2.7284 -0.63074,-0.152 -0.71915,-0.12061 -0.47816,0.16976 0.35238,0.4246 0.17526,0.72323 -0.79515,1.34066 -0.88075,0.56039 -1.61011,1.93394 -2.16595,4.07898 -0.65479,2.52694 -0.54988,4.42697 0.3494,6.32788 1.37431,2.90499 2.46391,3.09484 5.65693,0.98564 z m -75.18385,-1.77263 c 0,1.956898 2.95919,-1.21025 3.65017,-2.63762 0.97581,-2.01578 0.57728,-4.91577 -1.14574,-8.33724 -1.05066,-2.08634 -2.34087,-3.33953 -3.85909,-3.74834 -2.36361,-0.63645 -4.17105,0.45462 -5.61651,3.39045 -0.7037,1.42927 -0.88301,2.14378 -0.96001,3.82524 -0.2099,4.58398 1.29829,7.02242 4.69921,7.5977 1.72009,0.29096 3.23197,-1.768522 3.23197,-0.0902 z m 97.99683,-2.03883 c -3.67776,-0.19741 -4.32112,-0.30137 -7.99739,-1.29233 -1.05159,-0.28346 -2.95659,-0.59148 -4.23334,-0.68449 -2.40189,-0.17498 -1.92447,-0.54095 -1.92447,-0.90221 0,-0.40546 1.22728,-0.94167 3.75587,-0.94167 h 2.56524 l -0.10909,-1.05834 c -0.2705,-2.62421 -0.45913,-8.57241 -0.50761,-16.00729 -0.0311,-4.77654 -0.18382,-8.89204 -0.3741,-10.08463 -0.3195,-2.00248 -0.19567,-3.32411 0.47729,-5.09414 0.25572,-0.67258 0.33729,-0.69623 2.40107,-0.69623 1.28041,0 2.42261,0.14477 2.85082,0.36133 0.42812,0.21652 2.02678,0.41921 3.9889,0.50576 3.89831,0.17195 4.28584,0.37431 3.76581,1.96639 -0.25468,0.77974 -0.26494,2.09247 -0.0461,5.89777 0.15485,2.69214 0.28217,7.03792 0.28293,9.65729 0.001,4.70012 0.39339,12.89835 0.6754,14.12432 0.1431,0.6221 0.17598,0.62823 2.44627,0.45623 5.32389,-0.40335 5.27884,-0.39236 5.4549,-1.33084 0.0869,-0.46336 -0.0811,-2.60834 -0.37334,-4.76662 -0.34285,-2.53181 -0.53139,-5.39733 -0.53139,-8.07611 v -4.15197 l -1.68549,-0.31056 c -0.92702,-0.17081 -2.04251,-0.23916 -2.47888,-0.15189 -1.04229,0.20846 -1.8527,-0.63541 -2.03126,-2.11513 -0.27116,-2.24716 -0.44846,-6.26079 -0.48271,-10.92774 -0.0445,-6.06856 -0.22153,-5.78619 3.79004,-6.04619 l 2.8883,-0.1872 v -0.99122 c 0,-0.54517 -0.0686,-1.33353 -0.15237,-1.7519 -0.14935,-0.74558 -0.19268,-0.76295 -2.18281,-0.87494 -3.82767,-0.21541 -11.02782,-0.1157 -15.5242,0.21497 -2.47385,0.18193 -6.28385,0.43633 -8.46666,0.56534 -4.55756,0.26934 -10.38254,0.66733 -15.34583,1.04849 -8.47438,0.65079 -19.6704,0.99689 -51.19688,1.58266 -7.78536,0.14466 -18.44146,0.414 -23.68021,0.59855 -5.23875,0.18455 -10.2989,0.33379 -11.24478,0.33164 -3.19798,-0.007 -10.43712,-0.69087 -12.74869,-1.20391 -1.26371,-0.28046 -2.46921,-0.50994 -2.67891,-0.50994 -0.48851,0 -0.71199,1.13504 -0.71199,3.61617 0,1.07939 -0.24673,4.64003 -0.54828,7.91254 -0.44195,4.79597 -0.49326,6.30467 -0.26459,7.77852 0.44557,2.87175 0.34346,4.62134 -0.5247,8.99068 l -0.80841,6.185267 0.72724,1.5313 0.72725,1.53131 5.17439,-0.0829 c 6.09683,-0.0976 15.56699,1.106065 16.79612,1.16933 l 0.54911,0.55743 -0.76946,0.6691 c -0.65812,0.572282 -0.94527,0.64798 -1.98438,0.52313 -0.6682,-0.0803 -10.42241,-0.27383 -13.91491,-0.43009 -3.4925,-0.15625 -6.59088,-0.33467 -6.88528,-0.39647 -0.31997,-0.0672 -0.83005,-0.67513 -1.26813,-1.51146 -0.40306,-0.7695 -0.91285,-1.69675 -1.13284,-2.06055 -0.52651,-0.87067 -0.35883,-6.020097 0.42898,-9.875387 l 0.58523,-2.86393 -0.62563,-2.16316 c -0.74238,-2.56687 -0.75968,-3.91581 -0.13973,-10.89796 0.24533,-2.76294 0.54045,-6.6583 0.65584,-8.65636 0.19072,-3.30264 0.26671,-3.69343 0.83606,-4.29948 0.53675,-0.57134 0.85729,-0.66664 2.24229,-0.66664 0.88881,0 2.26704,0.18203 3.06274,0.40451 0.79569,0.22248 2.69687,0.51199 4.22484,0.64335 9.96882,0.857 9.99877,0.85815 14.21431,0.54217 2.29583,-0.17209 7.9247,-0.36634 12.5086,-0.43168 4.58391,-0.0653 13.27547,-0.23014 19.31459,-0.36624 41.33741,-0.93156 41.57952,-0.94064 56.48854,-2.11855 1.89177,-0.14947 5.64224,-0.38911 8.33437,-0.53254 2.69214,-0.14343 7.26078,-0.43869 10.15255,-0.65611 6.11595,-0.45985 10.10874,-0.50316 12.07154,-0.13092 1.21733,0.23086 1.50282,0.1973 2.25015,-0.26458 0.47076,-0.29095 1.04609,-0.529 1.27852,-0.529 0.73971,0 2.2054,1.53624 2.83805,2.97464 0.59004,1.34154 0.61476,1.68728 0.69525,9.72536 0.0459,4.58391 0.0789,11.66813 0.0734,15.74271 -0.007,5.31874 0.1087,8.30388 0.41099,10.58334 0.23159,1.74625 0.41872,3.9489 0.41587,4.89479 -0.003,0.94588 0.12322,2.11976 0.28015,2.60861 0.24117,0.75125 0.20602,0.99505 -0.22708,1.57514 -0.68293,0.91471 -2.28322,1.30501 -6.69147,1.63204 -3.88021,0.28785 -4.6388,0.28706 -10.18646,-0.0107 z m 2.61023,-3.06944 1.02273,-0.16896 -0.17202,-1.21719 c -0.41597,-2.94355 -0.88782,-10.04749 -0.94197,-14.18178 -0.0324,-2.47386 -0.13618,-6.87917 -0.23061,-9.78958 l -0.17169,-5.29167 -2.64584,-0.13229 c -1.4552,-0.0728 -2.91777,-0.28748 -3.25015,-0.47715 -0.33244,-0.18971 -1.1577,-0.30875 -1.83436,-0.26459 -1.11551,0.0728 -1.24961,0.15393 -1.44029,0.87133 -0.11563,0.43509 -0.0912,1.86384 0.0542,3.175 0.15012,1.35313 0.23337,7.72973 0.19252,14.74698 l -0.072,12.36303 1.05834,0.13757 c 2.95718,0.38439 6.85116,0.4903 8.43106,0.2293 z m 10.10342,-23.70387 c -0.0924,-1.34607 -0.20836,-4.764 -0.25764,-7.5954 -0.10346,-5.94311 -0.0124,-5.75985 -2.67761,-5.38763 l -1.56208,0.21816 0.0647,7.1267 c 0.0356,3.91968 0.13093,7.19362 0.21192,7.2754 0.081,0.0818 0.88213,0.28045 1.78031,0.44146 2.86152,0.51298 2.63181,0.70864 2.44044,-2.07869 z m -104.45792,5.55625 c -0.56769,-0.56769 -0.75487,-0.5908 -4.03489,-0.49794 -1.89177,0.0536 -3.67771,0.10034 -3.96875,0.10396 -0.29105,0.004 -2.37464,-0.12652 -4.63021,-0.2892 -2.25557,-0.16268 -7.43479,-0.41753 -11.50937,-0.56633 -4.07459,-0.14881 -7.908,-0.33673 -8.5187,-0.41759 -0.75255,-0.0996 -1.37719,-0.009 -1.93839,0.28116 -0.75164,0.38869 -0.88604,0.39018 -1.45696,0.0161 -0.90413,-0.5924 -1.05053,-1.6882 -1.05053,-7.8631 0,-6.77735 -0.0979,-6.5815 3.28215,-6.56438 1.25075,0.006 2.80988,0.1308 3.46472,0.27659 0.65484,0.14578 6.50497,0.31936 13.00028,0.38572 12.92952,0.1321 11.48036,0.24148 21.26326,-1.60498 9.08895,-1.71549 11.50469,-2.01935 17.19791,-2.16327 3.43454,-0.0868 6.66763,-0.0222 8.46667,0.1693 1.60073,0.17037 4.33917,0.41511 6.08542,0.54387 1.74625,0.12876 4.42515,0.35439 5.95312,0.5014 7.24346,0.69692 10.19392,0.85976 17.06716,0.94199 4.07374,0.0487 8.59742,-0.0353 10.05263,-0.18683 3.25834,-0.33921 6.51019,-0.0778 7.33434,0.58953 0.52287,0.42339 0.55175,0.55112 0.25146,1.1122 -0.25891,0.48378 -0.26947,0.8174 -0.0446,1.40886 0.16622,0.4372 0.26719,1.98958 0.23167,3.56172 -0.0377,1.6693 0.0775,3.32517 0.2874,4.12947 0.80266,3.07595 -0.26437,4.33089 -3.68883,4.33845 -3.58723,0.008 -7.48394,0.18349 -11.25061,0.50692 -2.0373,0.17494 -4.06136,0.25467 -4.49792,0.17718 -2.81937,-0.50043 -8.46234,-0.32573 -9.46329,0.29297 -0.54771,0.33854 -5.59739,0.35212 -11.17421,0.03 -2.91042,-0.16809 -6.12511,-0.35384 -7.14375,-0.4128 -1.01865,-0.0589 -5.36443,-0.0839 -9.65729,-0.0555 -7.25649,0.048 -7.84361,0.087 -8.35143,0.55388 -0.64399,0.5921 -1.36558,0.64387 -1.94649,0.13963 -0.33987,-0.295 -1.07322,-0.31743 -3.93538,-0.12034 -2.93431,0.20205 -3.60344,0.32799 -4.03489,0.75944 -0.66264,0.66263 -0.91289,0.65073 -1.64171,-0.0781 z m -2.67129,-3.62016 1.89277,-0.0179 0.15923,-2.84427 c 0.0876,-1.56435 0.20985,-3.71978 0.27171,-4.78984 l 0.11247,-1.94557 -0.70927,0.15539 c -0.39009,0.0855 -1.95942,0.2979 -3.48739,0.47209 -1.52797,0.1742 -2.80352,0.33049 -2.83457,0.34732 -0.031,0.0168 0.12919,0.62037 0.35608,1.34118 0.24003,0.76258 0.44945,2.58283 0.50086,4.35328 0.0486,1.67349 0.0967,3.07147 0.10695,3.10663 0.0102,0.0351 0.40555,0.0134 0.87849,-0.0483 0.47295,-0.0617 1.71165,-0.12025 2.75267,-0.13007 z m -6.68717,-2.59755 c 0.0982,-1.41883 0.2519,-3.38336 0.34163,-4.36562 l 0.16313,-1.78594 h -4.16734 c -3.86546,0 -4.15347,0.0335 -3.97584,0.46302 0.3351,0.81025 0.63704,4.90528 0.47678,6.46632 l -0.15455,1.50539 1.2928,0.10057 c 0.71103,0.0553 2.31701,0.12203 3.56884,0.14826 l 2.27605,0.0477 z m 18.35627,2.20289 c 0.0781,-0.0781 0.20042,-2.16809 0.27191,-4.64451 0.13217,-4.57833 0.34913,-5.54649 1.17212,-5.23067 0.21893,0.084 0.52623,0.6689 0.68288,1.29976 0.543,2.18666 1.13408,6.92762 0.96162,7.71286 -0.1733,0.789 -0.17323,0.78905 0.84856,0.62025 0.56203,-0.0928 1.94461,-0.17013 3.07239,-0.17173 l 2.05052,-0.003 0.005,-0.85989 c 0.003,-0.47295 0.23862,-2.46724 0.52419,-4.43177 0.28557,-1.96454 0.52146,-4.25649 0.52419,-5.09323 0.005,-1.40315 -0.0413,-1.52126 -0.59033,-1.52014 -0.94072,0.002 -7.29101,0.96071 -12.58354,1.89991 -4.57457,0.81178 -4.83494,0.88964 -4.67345,1.39751 0.38557,1.21257 0.6323,3.09383 0.81291,6.19842 l 0.19079,3.27936 3.29417,-0.15565 c 1.81179,-0.0856 3.35804,-0.21951 3.43609,-0.29757 z m -37.26558,-0.30733 c 0.20588,-0.20195 -0.49113,-7.87384 -0.73777,-8.12048 -0.30866,-0.30866 -4.65317,-0.83142 -5.19183,-0.62472 -0.33043,0.1268 -0.39689,0.87736 -0.39689,4.48214 0,2.3814 0.0493,4.37944 0.10962,4.44007 0.13701,0.13779 6.0681,-0.0311 6.21687,-0.17701 z m 8.75475,-4.13464 v -4.25838 l -3.21924,0.17309 c -1.77058,0.0952 -3.25591,0.20978 -3.30074,0.2546 -0.0448,0.0448 0.0428,0.84844 0.19479,1.7858 0.15197,0.93736 0.29785,2.74213 0.32419,4.01061 l 0.0479,2.30632 2.77812,0.0749 c 1.52796,0.0412 2.86741,0.0381 2.97655,-0.007 0.10914,-0.045 0.19844,-1.99803 0.19844,-4.34013 z m 63.56868,4.05081 c 0.69262,-0.11399 1.33252,-0.28046 1.42199,-0.36994 0.0895,-0.0895 0.4452,-1.77808 0.79048,-3.75247 0.63992,-3.6591 1.18286,-5.42838 1.6658,-5.42838 0.14837,0 0.20558,0.1673 0.12711,0.37178 -0.0785,0.20448 0.12526,1.24628 0.45272,2.3151 0.40224,1.31292 0.60141,2.65912 0.61398,4.14986 l 0.0186,2.20653 0.92605,-0.1531 c 0.50932,-0.0842 2.26549,-0.15441 3.9026,-0.15601 l 2.97657,-0.003 0.0128,-1.52135 c 0.0193,-2.2922 0.65102,-6.60226 1.0356,-7.06565 0.30348,-0.36567 -0.0853,-0.40883 -3.68289,-0.40883 -2.21221,0 -5.11406,-0.11221 -6.44855,-0.24936 -1.33449,-0.13715 -4.80759,-0.43976 -7.71801,-0.67247 -2.91041,-0.23271 -6.3037,-0.54356 -7.54062,-0.69077 -1.23693,-0.14721 -4.43267,-0.33888 -7.10165,-0.42594 l -4.8527,-0.15829 0.19757,1.56143 c 0.10866,0.85879 0.20878,3.54736 0.22248,5.9746 l 0.0249,4.41317 2.77813,-0.13559 c 1.52797,-0.0746 2.94059,-0.18676 3.13917,-0.2493 0.29703,-0.0936 0.32659,-0.963 0.16673,-4.90383 -0.15565,-3.83707 -0.12504,-4.83292 0.15387,-5.00529 0.53116,-0.32828 1.213,0.16898 1.55131,1.13137 0.28867,0.82115 0.78352,6.57757 0.71127,8.27381 l -0.0338,0.79375 3.47909,0.0736 3.47909,0.0736 -0.0395,-2.19031 c -0.0488,-2.70338 0.5553,-7.42487 1.03188,-8.06543 0.33782,-0.45405 0.37694,-0.45158 0.89242,0.0563 0.29762,0.29325 0.66002,1.16871 0.80901,1.95434 0.34685,1.82894 0.34899,6.40009 0.003,7.30901 -0.14657,0.38549 -0.19907,0.80996 -0.11668,0.94327 0.17978,0.29089 3.19074,0.29307 4.94975,0.004 z m 21.01059,-1.12766 c 1.09026,-0.27465 1.10122,-0.28925 0.93172,-1.24167 -0.0943,-0.53006 -0.17406,-2.33297 -0.17718,-4.00646 l -0.006,-3.04271 -1.05833,-0.17882 c -0.58208,-0.0984 -2.10287,-0.18765 -3.37953,-0.19844 l -2.32121,-0.0196 0.43696,0.66689 c 0.46893,0.71566 0.50102,2.04399 0.15128,6.26128 l -0.19056,2.29795 2.25465,-0.13025 c 1.24007,-0.0716 2.75112,-0.25531 3.35789,-0.40816 z m 7.23115,-0.36888 0.66145,-0.12974 -0.006,-3.89611 c -0.003,-2.14286 -0.10835,-4.05931 -0.23379,-4.25879 -0.17289,-0.27493 -0.73172,-0.33352 -2.30974,-0.24217 -1.14492,0.0663 -2.13446,0.1733 -2.19898,0.23782 -0.0645,0.0645 -0.008,0.59021 0.12634,1.16821 0.13401,0.578 0.24649,2.44161 0.24996,4.14136 0.006,2.98989 0.0257,3.09443 0.60163,3.21293 0.57924,0.11917 1.76475,0.0301 3.10885,-0.23351 z"
         style="fill:#000000;stroke-width:0.264583" />
    </g>
    <g
       id="use1071"
       transform="matrix(0.65201754,0,0,0.65201754,-39.634066,109.16474)">
      <path
         transform="scale(0.26458333)"
         d="m 899.3457,68.705078 c -0.10184,-0.003 -0.20308,0.01485 -0.30468,0.06445 -3.54909,1.262929 -6.74467,4.352586 -10.8125,3.308594 -12.80848,-2.288908 -26.15997,-1.103941 -39.06055,-0.494141 -32.84799,2.467975 -65.76882,3.860889 -98.59375,6.648438 -44.67417,3.488307 -89.51202,3.893863 -134.28906,5.101562 -49.44855,1.211165 -98.90122,2.161361 -148.35547,3.083985 -13.98441,0.303912 -27.81652,1.035999 -41.72461,1.9375 -14.89006,0.258293 -29.70327,-1.740854 -44.5293,-2.835938 -6.97156,-0.487041 -13.76154,-2.142539 -20.60547,-3.404297 -3.20159,-0.271823 -7.53408,-0.918364 -11.02148,0.15625 -3.99477,2.213466 -3.46581,7.391297 -3.87695,11.097657 -1.05406,19.432242 -3.17014,38.989352 -4.33399,58.265632 -0.56771,7.68071 0.12212,15.04186 2.60352,22.39453 0.71187,3.15925 2.62667,6.26625 1.23242,9.50781 -2.4743,11.05481 -4.22592,22.23205 -4.36524,33.4043 0.005,4.69211 -0.49614,9.86271 2.57032,13.80859 1.94482,3.17922 3.1564,7.02003 6.07421,9.47852 25.99569,1.99693 52.24119,2.05512 78.35157,3.10156 2.60466,0.70152 5.14157,-0.26798 6.86719,-2.27149 1.79376,-2.08099 4.85892,-0.74768 7.29101,-1.11718 0.6553,7.71213 1.89675,15.39254 7.09961,21.45507 4.70914,5.97063 11.51356,10.71793 19.3418,10.97071 10.49431,0.92355 22.22874,-0.81587 29.88281,-8.71094 5.68815,-5.28053 7.07644,-13.32539 7.24414,-20.73242 -0.19767,-2.979 1.63705,-6.6577 5.12109,-6.02149 7.41067,1.2556 14.59238,3.79281 22.11719,4.51758 13.04799,1.65768 26.60548,0.99897 39.98047,1.27735 15.7697,-0.15338 31.39006,-1.11238 47.07812,-2.41993 14.46233,-0.91027 29.12503,0.36323 43.30665,-1.91796 18.2011,-1.3379 36.47881,0.049 54.66015,1.07421 4.40512,0.29243 8.81008,0.57259 13.21289,0.89844 0.2177,8.74596 -0.49984,17.5622 0.54883,26.25977 2.09692,7.90679 6.91843,15.82467 14.55859,19.38281 5.30979,2.47206 11.56369,2.12399 16.6543,-0.7168 10.71851,-5.58408 20.55772,-13.37573 27.47656,-23.36133 2.90506,-4.98946 3.46503,-10.43529 3.68946,-16.16601 -0.79646,-2.97689 0.98299,-3.3516 3.52343,-2.95508 3.0491,-1.04567 2.09707,1.83964 4.51563,1.94336 8.82183,0.81408 17.62792,2.05703 26.13477,4.62305 9.56496,2.75277 18.68975,3.0417 28.53515,3.51367 12.06796,0.82796 24.0196,0.82939 35.98438,-0.36133 6.64006,-0.76527 13.68075,-0.72279 19.81054,-3.67578 2.27796,-1.14613 3.44062,-3.80779 2.18555,-6.12109 -1.57901,-7.49903 -0.78975,-15.24902 -1.93555,-22.81641 -3.08179,-21.89196 -1.95792,-44.05809 -2.26172,-66.0918 -0.17688,-22.15378 -0.003,-44.32116 -0.79882,-66.462891 -0.0703,-7.21914 -3.99533,-14.237926 -9.90821,-18.291016 -0.26815,-0.120614 -0.56946,-0.320934 -0.875,-0.330078 z M 581.54688,110.3125 c 4.12985,0.13787 8.26065,0.27094 12.39062,0.40625 9.65061,0.28309 19.27431,0.64854 28.90039,1.33398 4.44125,0.27549 8.83237,0.86405 13.23242,1.25391 16.49174,1.56699 32.97279,2.75073 49.47266,4.33008 v 10.93945 c -1.46343,5.61396 -2.48872,11.33955 -3.49219,17.05469 -0.73901,3.75133 -1.33947,7.54728 -2.41992,11.21875 -0.35713,1.3314 -1.824,1.72505 -2.99414,2.05273 -0.76029,0.25769 -1.69949,0.32951 -2.36914,0.61524 -4.25522,0.70862 -8.56609,1.05557 -12.87891,1.08203 -2.65213,-0.0315 -5.36381,0.0548 -7.94726,-0.62891 -1.27563,-0.30924 -2.09147,-1.56666 -2.02344,-2.84961 -0.10352,-1.83896 0.85708,-3.48581 1.05664,-5.27734 0.63685,-5.3749 0.551,-10.80862 0.37109,-16.20898 -0.0249,-0.57317 -0.0868,-1.58883 -0.11328,-2.15625 -0.0989,-1.43169 -0.20209,-2.86487 -0.38086,-4.28907 -0.0567,-0.49572 -0.15323,-1.23841 -0.21484,-1.58007 -0.49092,-2.62319 -1.24186,-5.33575 -2.96094,-7.4375 -0.32957,0.62759 -0.4989,1.32611 -0.6875,2.00585 -1.43157,6.09634 -2.05965,12.349 -2.54687,18.58204 -0.51474,6.33407 -0.16909,12.68804 -0.0977,19.03125 -10.13938,-0.21117 -20.27863,-0.42828 -30.41797,-0.64258 0.0261,-0.61376 0.0517,-1.22808 0.0781,-1.8418 0.31362,-4.65846 0.0718,-9.32563 -0.2461,-13.97656 -0.38763,-5.57211 -0.8605,-11.1953 -1.63281,-16.77539 -0.2575,-1.99223 -0.63153,-4.11783 -2.09375,-5.61524 -0.574,-0.32859 -0.34602,-1.26143 -1.09766,-0.70312 -0.11678,0.52679 -0.16029,1.06783 -0.19921,1.60547 -0.18634,3.5523 -0.003,7.20121 0.082,10.69531 0.20186,6.07955 0.54557,12.15599 0.54882,18.24023 -0.081,1.99008 0.0903,4.12558 -0.83398,5.95313 -0.61459,1.20702 -2.03642,1.47538 -3.26367,1.55664 -7.72785,0.74884 -15.49621,0.93642 -23.2461,1.36328 -0.0113,-1.4533 -0.0198,-2.90603 -0.0273,-4.35937 -0.0835,-10.46914 0.005,-20.94271 -0.51953,-31.35743 -0.10991,-3.78852 -0.65308,-7.53901 -1.13281,-11.29297 -0.0983,-0.776 -0.19666,-1.55207 -0.29492,-2.32812 z m -5.86329,0.38672 c 0.39375,-0.002 0.79288,0.003 1.18164,0.0684 1.61088,0.13693 2.77228,1.58882 2.93555,3.13476 0.43839,3.77927 0.0704,7.59466 -0.27539,11.36719 -0.76074,8.39762 -2.23599,16.72408 -3.14062,25.07227 -0.0593,0.55438 -0.14757,1.45306 -0.20313,1.93945 -0.25587,2.46108 -0.13603,4.93867 -0.18555,7.4082 -3.77537,0.0151 -7.55091,-0.005 -11.32617,0.0293 -2.81575,0.0583 -5.71576,0.16771 -8.58594,0.46289 -1.77006,0.10356 -3.59706,0.87066 -5.3457,0.2832 -1.4118,-0.49991 -1.86687,-2.17913 -1.53125,-3.51953 0.3428,-1.29808 0.40283,-2.63479 0.3125,-3.9707 -0.0747,-1.68782 -0.24064,-3.50505 -0.39258,-5.10156 -0.56643,-5.41142 -1.32226,-10.80503 -2.33007,-16.15235 -0.28389,-1.50262 -0.60828,-3.08613 -1.00782,-4.64843 -0.19226,-1.07914 -0.97036,-2.01331 -0.80859,-3.14063 0.16343,-0.80477 -0.1909,-0.67783 -0.50195,-0.11914 -0.83732,2.05221 -0.9148,4.31373 -1.14649,6.49414 -0.62392,8.58008 -0.5569,17.19469 -1.17969,25.77539 -0.2095,1.57565 -0.004,3.33035 -0.94531,4.70508 -1.34948,0.80557 -2.97835,0.74544 -4.49023,0.94727 -8.07186,0.71002 -16.17815,0.90411 -24.26758,1.33789 -0.42323,-6.8587 -0.74448,-13.72386 -1.26367,-20.57618 -0.46825,-5.53061 -0.93109,-11.11975 -2.48047,-16.47265 -0.53855,-1.28572 -0.35297,-2.936 0.82617,-3.80469 1.70445,-1.23961 3.87961,-1.50172 5.87891,-1.99219 8.60617,-1.7215 17.26548,-3.16416 25.91992,-4.62109 7.22661,-1.17884 14.50054,-2.33027 21.77734,-3.38672 4.18228,-0.56976 8.35947,-1.26819 12.57617,-1.51953 z m 110.02344,6.96484 c 4.21935,0.36452 8.44734,0.62113 12.67969,0.77344 5.60096,0.21694 11.26381,0.27123 16.91601,0.26367 3.16483,0.0787 6.3635,-0.085 9.49805,0.42383 0.83418,0.28365 1.07696,0.31667 0.4375,-0.46289 6.82224,0.10787 13.65352,-0.0329 20.4668,0.38867 3.64033,0.13746 7.21629,0.84838 10.79883,1.45117 0.0404,6.29265 -0.0398,12.58557 0.11328,18.87696 0.11792,3.08984 0.14527,6.30772 0.60547,9.42968 0.31702,1.61889 0.61804,3.61221 -0.70313,4.88282 -1.39313,1.27487 -3.37887,1.48026 -5.13476,1.94726 -7.6142,1.45017 -15.39177,1.53999 -23.10352,2.05469 0.51001,-6.28607 1.08071,-12.53209 1.49805,-18.82031 0.19842,-4.03887 0.56773,-8.12153 -0.008,-12.14453 -0.14921,-1.63612 -1.17166,-2.95119 -2.04492,-4.27149 -0.36937,-0.73013 -0.48087,-0.67766 -0.62109,0.084 -0.33986,0.69683 -0.83861,1.31357 -0.96485,2.10742 -1.30405,5.08312 -1.94263,10.30985 -2.51757,15.51758 -0.11717,1.1043 -0.22538,2.3804 -0.30664,3.38281 -0.36548,4.3714 -0.25537,8.76112 -0.32227,13.14258 -1.67486,1.1e-4 -3.35049,0.002 -5.02539,0.004 -6.23414,0.0178 -12.48193,-0.059 -18.6582,0.25586 -3.30172,0.0639 -6.53357,0.76144 -9.78321,1.27344 -0.0287,-3.42005 -0.0575,-6.83971 -0.084,-10.25977 -0.0106,-1.55308 -0.055,-2.8957 -0.16992,-4.42773 -0.0552,-0.73561 -0.13479,-1.5768 -0.24024,-2.44727 -0.082,-0.74116 -0.232,-1.6645 -0.32422,-2.27539 -0.60427,-4.11264 -2.17323,-7.99235 -2.95703,-12.06445 -0.10696,-2.29671 -0.0147,-4.61509 -0.0449,-6.91992 z m 90.60156,0.0937 c 0.81003,0.004 1.61961,0.0395 2.42579,0.13281 1.67508,0.1465 3.60496,1.0268 3.93945,2.84766 0.53563,2.92759 0.55679,5.92419 0.68945,8.89063 0.22299,7.88383 0.0963,15.77206 0.14844,23.6582 -3.19665,0.62358 -6.3862,1.30809 -9.62695,1.66601 -2.7055,0.23369 -5.53963,0.57924 -8.16602,-0.29882 -1.65105,-0.57952 -2.349,-2.38769 -2.48242,-4 -0.3961,-4.44839 -0.15502,-8.92374 -0.30469,-13.38282 -0.0215,-1.14406 -0.0756,-2.45308 -0.11523,-3.49218 -0.17549,-2.85525 -0.23705,-5.74011 -0.82227,-8.54883 -0.2914,-1.65959 -0.79833,-3.40498 -0.34766,-5.07617 0.24703,-0.75708 0.91261,-1.22011 1.67188,-1.38868 3.4817,-0.63471 7.03323,-0.76436 10.56055,-0.96093 0.80927,-0.0253 1.61969,-0.0514 2.42968,-0.0469 z m -269.28906,4.21094 c -0.78829,13.56733 -1.55521,27.13587 -2.31055,40.70508 -1.93923,0.017 -3.87912,0.0358 -5.81836,0.0547 -2.04714,0.0208 -4.21863,0.0313 -6.1875,0.0898 -1.25336,0.0518 -2.50348,0.0827 -3.67578,0.15039 -2.34848,0.0345 -4.66857,0.54013 -7.01562,0.51367 -0.85935,0.0292 -1.4634,-0.56312 -2.02734,-1.12695 -0.46175,-8.18539 -0.22504,-16.31789 -1.42383,-24.44727 -0.26865,-2.32573 -0.96341,-4.56229 -1.64063,-6.79297 -0.25221,-1.14255 -0.83576,-2.33307 -0.55078,-3.50585 0.27379,-0.45022 0.18185,-1.3353 0.87891,-1.28126 4.47934,-0.73368 9.00996,-1.11834 13.51172,-1.69335 4.5761,-0.58904 9.18916,-1.01956 13.68359,-2.10157 0.85871,-0.18803 1.71746,-0.37623 2.57617,-0.56445 z m -128.19922,0.91016 c 5.05074,0.17049 10.08853,0.77773 15.05078,1.72851 1.41702,0.38143 3.19899,0.51805 4.05079,1.87891 0.6898,1.62157 0.76045,3.42371 1.04882,5.14453 0.96159,7.72198 1.67863,15.4786 2.05469,23.25195 -0.0366,1.56522 0.34925,3.34017 -0.64844,4.69531 -0.86445,0.6734 -2.05834,0.67984 -3.11914,0.78907 -6.13504,0.43438 -12.28993,0.57498 -18.43945,0.59765 -1.44418,-0.0845 -2.97865,0.1403 -4.3457,-0.41601 -0.70893,-0.0612 -0.81512,-0.69061 -0.98633,-1.25977 -0.33449,-1.75539 -0.25512,-3.57247 -0.34961,-5.35547 -0.14891,-7.6761 -0.20712,-15.35828 0.0117,-23.0332 0.15643,-2.13109 0.0696,-4.40635 1.07617,-6.35156 0.68836,-1.32813 2.27461,-1.70381 3.65625,-1.66602 0.31316,-0.001 0.62613,-0.003 0.93945,-0.004 z m 55.18946,1.39453 v 4.00781 c -0.059,9.22711 0.18518,18.46383 -0.33008,27.68164 -0.18112,1.3988 -0.007,2.99898 -0.85938,4.19531 -0.58582,0.82213 -1.66492,0.75713 -2.57031,0.81836 -7.56813,0.13686 -15.13393,-0.24058 -22.69922,-0.40234 -0.17681,-6.54624 -0.12029,-13.10723 -0.74414,-19.63281 -0.25663,-3.7726 -1.00257,-7.41426 -1.39258,-11.16797 -0.14124,-1.09712 -0.18312,-2.24133 0.38086,-3.23633 0.62774,-0.44908 1.51555,-0.6029 2.30664,-0.67773 7.91641,-0.7276 15.86608,-1.00563 23.80078,-1.47266 z m 40.24414,1.39258 c 0.47811,0.0667 0.0398,0.96863 0.10742,1.41015 -1.15529,11.87402 -1.97384,23.75983 -2.78516,35.6543 -4.91701,-0.11036 -9.83637,-0.18104 -14.75195,-0.33789 -5.43988,-0.14105 -10.8653,-0.53552 -16.28711,-0.98438 0.28834,-3.09097 0.69352,-6.17359 0.89648,-9.27148 0.14703,-3.96559 -0.0569,-7.94441 -0.34375,-11.83203 -0.20768,-2.62945 -0.46401,-5.3763 -0.92968,-8.05274 -0.1022,-1.08381 -0.58831,-2.07316 -0.77539,-3.13086 -0.2055,-1.53256 1.16044,-2.77826 2.59375,-2.96875 3.19627,-0.55215 6.46487,-0.36657 9.69531,-0.45312 7.43815,-0.0151 14.8763,-0.003 22.31445,-0.006 0.10999,-0.0295 0.19722,-0.0387 0.26563,-0.0273 z"
         style="fill:#fffffe;fill-opacity:1;stroke-width:0.999999"
         id="path1362" />
      <path
         sodipodi:nodetypes="csscssssassssssssssccccscssssssssccscsssssssssssssssscsssscscssssssscssssscssssscscsssssscssssssccccscssscssscsssssscsccsssssssscscsssccccsssccssscscsscssscssssscccssccsscsssssssscssssccsssscssssscccccsccsssscscccscssscsscccssssccccsccssscsccsssscsccsssscsccccsssssscsccssssssscsscccssssccccssscscccscccscsscccccccsssccscc"
         id="path1364"
         d="m 197.51678,76.224181 c -1.46719,-0.53697 -2.86819,-1.99655 -3.75182,-3.9087 -0.69592,-1.50594 -0.74902,-1.85536 -0.74902,-4.92816 v -3.30729 l -0.79375,-0.0561 c -9.2486,-0.653665 -15.01844,-0.75174 -17.5948,-0.29947 -0.94588,0.16605 -3.56526,0.28653 -5.82083,0.26775 -2.25557,-0.0188 -5.11307,0.0878 -6.35,0.23686 -1.23693,0.14906 -8.46439,0.600609 -12.7,0.5054 -4.16966,-0.09373 -7.57216,0.20778 -12.46725,-1.0588 -2.93855,-0.76035 -2.79177,-0.83685 -2.93305,1.52883 -0.17293,2.89585 -1.25034,4.71952 -3.67021,6.2124 -1.99257,1.22927 -5.84458,1.61328 -8.44282,0.84168 -1.90923,-0.56698 -4.18938,-2.81022 -4.9534,-4.87322 -1.11175,-3.00192 -0.96533,-7.4046 0.32842,-9.87549 0.39377,-0.75204 1.00786,-1.94088 1.36465,-2.64185 0.67945,-1.33491 2.20738,-2.52642 3.99727,-3.11714 1.27729,-0.42154 4.01192,-0.15426 5.42614,0.53035 2.42139,1.17218 6.05836,4.41286 5.50852,7.88945 l 0.31402,1.36037 2.40604,0.0839 c 1.32332,0.0461 4.25151,0.001 6.50708,-0.0995 2.25558,-0.10086 2.72522,-0.25216 6.21772,-0.33621 3.4925,-0.084 7.83828,-0.28703 9.65729,-0.45108 1.81901,-0.16404 5.62901,-0.32628 8.46666,-0.36053 2.83766,-0.0342 6.03064,-0.19592 7.09551,-0.35929 2.85003,-0.43724 11.481,-0.36823 15.65866,0.1252 4.24027,0.50082 3.9171,0.52856 4.89591,-0.42015 0.79486,-0.7704 0.89436,-1.01733 0.84681,-2.10146 -0.1343,-3.06225 2.92327,-4.5706 6.44844,-3.18111 3.86073,1.52176 7.34504,5.38652 8.16834,9.06025 0.32819,1.46445 0.0141,4.18336 -0.64328,5.56871 -0.73197,1.54251 -3.22415,4.05729 -5.51245,5.56244 -3.19391,2.10081 -4.64483,2.43648 -6.9248,1.60203 z m 5.22992,-5.04115 c 2.69979,-1.78339 4.9543,-4.07441 4.95113,-5.03131 -0.004,-1.0858 -1.43966,-3.42387 -3.159,-5.14321 -1.49393,-1.49393 -2.90723,-2.37851 -4.3592,-2.7284 -0.63074,-0.152 -0.71915,-0.12061 -0.47816,0.16976 0.35238,0.4246 0.17526,0.72323 -0.79515,1.34066 -0.88075,0.56039 -1.61011,1.93394 -2.16595,4.07898 -0.65479,2.52694 -0.54988,4.42697 0.3494,6.32788 1.37431,2.90499 2.46391,3.09484 5.65693,0.98564 z m -75.18385,-1.77263 c 0,1.956898 2.95919,-1.21025 3.65017,-2.63762 0.97581,-2.01578 0.57728,-4.91577 -1.14574,-8.33724 -1.05066,-2.08634 -2.34087,-3.33953 -3.85909,-3.74834 -2.36361,-0.63645 -4.17105,0.45462 -5.61651,3.39045 -0.7037,1.42927 -0.88301,2.14378 -0.96001,3.82524 -0.2099,4.58398 1.29829,7.02242 4.69921,7.5977 1.72009,0.29096 3.23197,-1.768522 3.23197,-0.0902 z m 97.99683,-2.03883 c -3.67776,-0.19741 -4.32112,-0.30137 -7.99739,-1.29233 -1.05159,-0.28346 -2.95659,-0.59148 -4.23334,-0.68449 -2.40189,-0.17498 -1.92447,-0.54095 -1.92447,-0.90221 0,-0.40546 1.22728,-0.94167 3.75587,-0.94167 h 2.56524 l -0.10909,-1.05834 c -0.2705,-2.62421 -0.45913,-8.57241 -0.50761,-16.00729 -0.0311,-4.77654 -0.18382,-8.89204 -0.3741,-10.08463 -0.3195,-2.00248 -0.19567,-3.32411 0.47729,-5.09414 0.25572,-0.67258 0.33729,-0.69623 2.40107,-0.69623 1.28041,0 2.42261,0.14477 2.85082,0.36133 0.42812,0.21652 2.02678,0.41921 3.9889,0.50576 3.89831,0.17195 4.28584,0.37431 3.76581,1.96639 -0.25468,0.77974 -0.26494,2.09247 -0.0461,5.89777 0.15485,2.69214 0.28217,7.03792 0.28293,9.65729 0.001,4.70012 0.39339,12.89835 0.6754,14.12432 0.1431,0.6221 0.17598,0.62823 2.44627,0.45623 5.32389,-0.40335 5.27884,-0.39236 5.4549,-1.33084 0.0869,-0.46336 -0.0811,-2.60834 -0.37334,-4.76662 -0.34285,-2.53181 -0.53139,-5.39733 -0.53139,-8.07611 v -4.15197 l -1.68549,-0.31056 c -0.92702,-0.17081 -2.04251,-0.23916 -2.47888,-0.15189 -1.04229,0.20846 -1.8527,-0.63541 -2.03126,-2.11513 -0.27116,-2.24716 -0.44846,-6.26079 -0.48271,-10.92774 -0.0445,-6.06856 -0.22153,-5.78619 3.79004,-6.04619 l 2.8883,-0.1872 v -0.99122 c 0,-0.54517 -0.0686,-1.33353 -0.15237,-1.7519 -0.14935,-0.74558 -0.19268,-0.76295 -2.18281,-0.87494 -3.82767,-0.21541 -11.02782,-0.1157 -15.5242,0.21497 -2.47385,0.18193 -6.28385,0.43633 -8.46666,0.56534 -4.55756,0.26934 -10.38254,0.66733 -15.34583,1.04849 -8.47438,0.65079 -19.6704,0.99689 -51.19688,1.58266 -7.78536,0.14466 -18.44146,0.414 -23.68021,0.59855 -5.23875,0.18455 -10.2989,0.33379 -11.24478,0.33164 -3.19798,-0.007 -10.437121,-0.69087 -12.748691,-1.20391 -1.26371,-0.28046 -2.46921,-0.50994 -2.67891,-0.50994 -0.48851,0 -0.71199,1.13504 -0.71199,3.61617 0,1.07939 -0.24673,4.64003 -0.54828,7.91254 -0.44195,4.79597 -0.49326,6.30467 -0.26459,7.77852 0.44557,2.87175 0.34346,4.62134 -0.5247,8.99068 l -0.80841,6.185267 0.72724,1.5313 0.72725,1.53131 5.17439,-0.0829 c 6.096831,-0.0976 15.566991,1.106065 16.796121,1.16933 l 0.54911,0.55743 -0.76946,0.6691 c -0.65812,0.572282 -0.94527,0.64798 -1.98438,0.52313 -0.6682,-0.0803 -10.42241,-0.27383 -13.914911,-0.43009 -3.4925,-0.15625 -6.59088,-0.33467 -6.88528,-0.39647 -0.31997,-0.0672 -0.83005,-0.67513 -1.26813,-1.51146 -0.40306,-0.7695 -0.91285,-1.69675 -1.13284,-2.06055 -0.52651,-0.87067 -0.35883,-6.020097 0.42898,-9.875387 l 0.58523,-2.86393 -0.62563,-2.16316 c -0.74238,-2.56687 -0.75968,-3.91581 -0.13973,-10.89796 0.24533,-2.76294 0.54045,-6.6583 0.65584,-8.65636 0.19072,-3.30264 0.26671,-3.69343 0.83606,-4.29948 0.53675,-0.57134 0.85729,-0.66664 2.24229,-0.66664 0.88881,0 2.26704,0.18203 3.06274,0.40451 0.79569,0.22248 2.69687,0.51199 4.224841,0.64335 9.96882,0.857 9.99877,0.85815 14.21431,0.54217 2.29583,-0.17209 7.9247,-0.36634 12.5086,-0.43168 4.58391,-0.0653 13.27547,-0.23014 19.31459,-0.36624 41.33741,-0.93156 41.57952,-0.94064 56.48854,-2.11855 1.89177,-0.14947 5.64224,-0.38911 8.33437,-0.53254 2.69214,-0.14343 7.26078,-0.43869 10.15255,-0.65611 6.11595,-0.45985 10.10874,-0.50316 12.07154,-0.13092 1.21733,0.23086 1.50282,0.1973 2.25015,-0.26458 0.47076,-0.29095 1.04609,-0.529 1.27852,-0.529 0.73971,0 2.2054,1.53624 2.83805,2.97464 0.59004,1.34154 0.61476,1.68728 0.69525,9.72536 0.0459,4.58391 0.0789,11.66813 0.0734,15.74271 -0.007,5.31874 0.1087,8.30388 0.41099,10.58334 0.23159,1.74625 0.41872,3.9489 0.41587,4.89479 -0.003,0.94588 0.12322,2.11976 0.28015,2.60861 0.24117,0.75125 0.20602,0.99505 -0.22708,1.57514 -0.68293,0.91471 -2.28322,1.30501 -6.69147,1.63204 -3.88021,0.28785 -4.6388,0.28706 -10.18646,-0.0107 z m 2.61023,-3.06944 1.02273,-0.16896 -0.17202,-1.21719 c -0.41597,-2.94355 -0.88782,-10.04749 -0.94197,-14.18178 -0.0324,-2.47386 -0.13618,-6.87917 -0.23061,-9.78958 l -0.17169,-5.29167 -2.64584,-0.13229 c -1.4552,-0.0728 -2.91777,-0.28748 -3.25015,-0.47715 -0.33244,-0.18971 -1.1577,-0.30875 -1.83436,-0.26459 -1.11551,0.0728 -1.24961,0.15393 -1.44029,0.87133 -0.11563,0.43509 -0.0912,1.86384 0.0542,3.175 0.15012,1.35313 0.23337,7.72973 0.19252,14.74698 l -0.072,12.36303 1.05834,0.13757 c 2.95718,0.38439 6.85116,0.4903 8.43106,0.2293 z m 10.10342,-23.70387 c -0.0924,-1.34607 -0.20836,-4.764 -0.25764,-7.5954 -0.10346,-5.94311 -0.0124,-5.75985 -2.67761,-5.38763 l -1.56208,0.21816 0.0647,7.1267 c 0.0356,3.91968 0.13093,7.19362 0.21192,7.2754 0.081,0.0818 0.88213,0.28045 1.78031,0.44146 2.86152,0.51298 2.63181,0.70864 2.44044,-2.07869 z m -104.45792,5.55625 c -0.56769,-0.56769 -0.75487,-0.5908 -4.03489,-0.49794 -1.89177,0.0536 -3.67771,0.10034 -3.96875,0.10396 -0.29105,0.004 -2.37464,-0.12652 -4.63021,-0.2892 -2.25557,-0.16268 -7.43479,-0.41753 -11.50937,-0.56633 -4.07459,-0.14881 -7.908,-0.33673 -8.5187,-0.41759 -0.75255,-0.0996 -1.377191,-0.009 -1.938391,0.28116 -0.75164,0.38869 -0.88604,0.39018 -1.45696,0.0161 -0.90413,-0.5924 -1.05053,-1.6882 -1.05053,-7.8631 0,-6.77735 -0.0979,-6.5815 3.28215,-6.56438 1.250751,0.006 2.809881,0.1308 3.464721,0.27659 0.65484,0.14578 6.50497,0.31936 13.00028,0.38572 12.92952,0.1321 11.48036,0.24148 21.26326,-1.60498 9.08895,-1.71549 11.50469,-2.01935 17.19791,-2.16327 3.43454,-0.0868 6.66763,-0.0222 8.46667,0.1693 1.60073,0.17037 4.33917,0.41511 6.08542,0.54387 1.74625,0.12876 4.42515,0.35439 5.95312,0.5014 7.24346,0.69692 10.19392,0.85976 17.06716,0.94199 4.07374,0.0487 8.59742,-0.0353 10.05263,-0.18683 3.25834,-0.33921 6.51019,-0.0778 7.33434,0.58953 0.52287,0.42339 0.55175,0.55112 0.25146,1.1122 -0.25891,0.48378 -0.26947,0.8174 -0.0446,1.40886 0.16622,0.4372 0.26719,1.98958 0.23167,3.56172 -0.0377,1.6693 0.0775,3.32517 0.2874,4.12947 0.80266,3.07595 -0.26437,4.33089 -3.68883,4.33845 -3.58723,0.008 -7.48394,0.18349 -11.25061,0.50692 -2.0373,0.17494 -4.06136,0.25467 -4.49792,0.17718 -2.81937,-0.50043 -8.46234,-0.32573 -9.46329,0.29297 -0.54771,0.33854 -5.59739,0.35212 -11.17421,0.03 -2.91042,-0.16809 -6.12511,-0.35384 -7.14375,-0.4128 -1.01865,-0.0589 -5.36443,-0.0839 -9.65729,-0.0555 -7.25649,0.048 -7.84361,0.087 -8.35143,0.55388 -0.64399,0.5921 -1.36558,0.64387 -1.94649,0.13963 -0.33987,-0.295 -1.07322,-0.31743 -3.93538,-0.12034 -2.93431,0.20205 -3.60344,0.32799 -4.03489,0.75944 -0.66264,0.66263 -0.91289,0.65073 -1.64171,-0.0781 z m -2.67129,-3.62016 1.89277,-0.0179 0.15923,-2.84427 c 0.0876,-1.56435 0.20985,-3.71978 0.27171,-4.78984 l 0.11247,-1.94557 -0.70927,0.15539 c -0.39009,0.0855 -1.95942,0.2979 -3.48739,0.47209 -1.52797,0.1742 -2.80352,0.33049 -2.83457,0.34732 -0.031,0.0168 0.12919,0.62037 0.35608,1.34118 0.24003,0.76258 0.44945,2.58283 0.50086,4.35328 0.0486,1.67349 0.0967,3.07147 0.10695,3.10663 0.0102,0.0351 0.40555,0.0134 0.87849,-0.0483 0.47295,-0.0617 1.71165,-0.12025 2.75267,-0.13007 z m -6.68717,-2.59755 c 0.0982,-1.41883 0.2519,-3.38336 0.34163,-4.36562 l 0.16313,-1.78594 h -4.16734 c -3.86546,0 -4.15347,0.0335 -3.97584,0.46302 0.3351,0.81025 0.63704,4.90528 0.47678,6.46632 l -0.15455,1.50539 1.2928,0.10057 c 0.71103,0.0553 2.31701,0.12203 3.56884,0.14826 l 2.27605,0.0477 z m 18.35627,2.20289 c 0.0781,-0.0781 0.20042,-2.16809 0.27191,-4.64451 0.13217,-4.57833 0.34913,-5.54649 1.17212,-5.23067 0.21893,0.084 0.52623,0.6689 0.68288,1.29976 0.543,2.18666 1.13408,6.92762 0.96162,7.71286 -0.1733,0.789 -0.17323,0.78905 0.84856,0.62025 0.56203,-0.0928 1.94461,-0.17013 3.07239,-0.17173 l 2.05052,-0.003 0.005,-0.85989 c 0.003,-0.47295 0.23862,-2.46724 0.52419,-4.43177 0.28557,-1.96454 0.52146,-4.25649 0.52419,-5.09323 0.005,-1.40315 -0.0413,-1.52126 -0.59033,-1.52014 -0.94072,0.002 -7.29101,0.96071 -12.58354,1.89991 -4.57457,0.81178 -4.83494,0.88964 -4.67345,1.39751 0.38557,1.21257 0.6323,3.09383 0.81291,6.19842 l 0.19079,3.27936 3.29417,-0.15565 c 1.81179,-0.0856 3.35804,-0.21951 3.43609,-0.29757 z m -37.26558,-0.30733 c 0.20588,-0.20195 -0.49113,-7.87384 -0.73777,-8.12048 -0.30866,-0.30866 -4.65317,-0.83142 -5.191831,-0.62472 -0.33043,0.1268 -0.39689,0.87736 -0.39689,4.48214 0,2.3814 0.0493,4.37944 0.10962,4.44007 0.13701,0.13779 6.068101,-0.0311 6.216871,-0.17701 z m 8.75475,-4.13464 v -4.25838 l -3.21924,0.17309 c -1.77058,0.0952 -3.25591,0.20978 -3.30074,0.2546 -0.0448,0.0448 0.0428,0.84844 0.19479,1.7858 0.15197,0.93736 0.29785,2.74213 0.32419,4.01061 l 0.0479,2.30632 2.77812,0.0749 c 1.52796,0.0412 2.86741,0.0381 2.97655,-0.007 0.10914,-0.045 0.19844,-1.99803 0.19844,-4.34013 z m 63.56868,4.05081 c 0.69262,-0.11399 1.33252,-0.28046 1.42199,-0.36994 0.0895,-0.0895 0.4452,-1.77808 0.79048,-3.75247 0.63992,-3.6591 1.18286,-5.42838 1.6658,-5.42838 0.14837,0 0.20558,0.1673 0.12711,0.37178 -0.0785,0.20448 0.12526,1.24628 0.45272,2.3151 0.40224,1.31292 0.60141,2.65912 0.61398,4.14986 l 0.0186,2.20653 0.92605,-0.1531 c 0.50932,-0.0842 2.26549,-0.15441 3.9026,-0.15601 l 2.97657,-0.003 0.0128,-1.52135 c 0.0193,-2.2922 0.65102,-6.60226 1.0356,-7.06565 0.30348,-0.36567 -0.0853,-0.40883 -3.68289,-0.40883 -2.21221,0 -5.11406,-0.11221 -6.44855,-0.24936 -1.33449,-0.13715 -4.80759,-0.43976 -7.71801,-0.67247 -2.91041,-0.23271 -6.3037,-0.54356 -7.54062,-0.69077 -1.23693,-0.14721 -4.43267,-0.33888 -7.10165,-0.42594 l -4.8527,-0.15829 0.19757,1.56143 c 0.10866,0.85879 0.20878,3.54736 0.22248,5.9746 l 0.0249,4.41317 2.77813,-0.13559 c 1.52797,-0.0746 2.94059,-0.18676 3.13917,-0.2493 0.29703,-0.0936 0.32659,-0.963 0.16673,-4.90383 -0.15565,-3.83707 -0.12504,-4.83292 0.15387,-5.00529 0.53116,-0.32828 1.213,0.16898 1.55131,1.13137 0.28867,0.82115 0.78352,6.57757 0.71127,8.27381 l -0.0338,0.79375 3.47909,0.0736 3.47909,0.0736 -0.0395,-2.19031 c -0.0488,-2.70338 0.5553,-7.42487 1.03188,-8.06543 0.33782,-0.45405 0.37694,-0.45158 0.89242,0.0563 0.29762,0.29325 0.66002,1.16871 0.80901,1.95434 0.34685,1.82894 0.34899,6.40009 0.003,7.30901 -0.14657,0.38549 -0.19907,0.80996 -0.11668,0.94327 0.17978,0.29089 3.19074,0.29307 4.94975,0.004 z m 21.01059,-1.12766 c 1.09026,-0.27465 1.10122,-0.28925 0.93172,-1.24167 -0.0943,-0.53006 -0.17406,-2.33297 -0.17718,-4.00646 l -0.006,-3.04271 -1.05833,-0.17882 c -0.58208,-0.0984 -2.10287,-0.18765 -3.37953,-0.19844 l -2.32121,-0.0196 0.43696,0.66689 c 0.46893,0.71566 0.50102,2.04399 0.15128,6.26128 l -0.19056,2.29795 2.25465,-0.13025 c 1.24007,-0.0716 2.75112,-0.25531 3.35789,-0.40816 z m 7.23115,-0.36888 0.66145,-0.12974 -0.006,-3.89611 c -0.003,-2.14286 -0.10835,-4.05931 -0.23379,-4.25879 -0.17289,-0.27493 -0.73172,-0.33352 -2.30974,-0.24217 -1.14492,0.0663 -2.13446,0.1733 -2.19898,0.23782 -0.0645,0.0645 -0.008,0.59021 0.12634,1.16821 0.13401,0.578 0.24649,2.44161 0.24996,4.14136 0.006,2.98989 0.0257,3.09443 0.60163,3.21293 0.57924,0.11917 1.76475,0.0301 3.10885,-0.23351 z"
         style="fill:#000000;stroke-width:0.264583" />
    </g>
    <use
       height="100%"
       width="100%"
       transform="matrix(0.94524714,0,0,0.94524714,183.94833,105.04548)"
       id="use1073"
       xlink:href="#use1069"
       y="0"
       x="0" />
    <g
       transform="matrix(0.72911562,0,0,0.72911562,142.16989,-8.8816019)"
       id="g955">
      <path
         id="path123"
         style="fill:#ffffff;fill-opacity:1;stroke-width:0.264583"
         d="m 155.56641,105.38477 c -1.06901,-0.001 -1.62786,1.1152 -1.53843,2.06484 0.1039,1.68751 0.40696,3.37651 0.41669,5.05064 0.2596,4.90699 0.0741,9.83578 0.50064,14.73217 0.37629,1.08292 0.25758,2.23529 0.45703,3.3457 0.11225,0.76391 1.24389,0.86548 1.48312,0.12781 0.7546,-1.91125 0.79357,-4.01611 1.04408,-6.03543 0.39685,-4.86623 0.8044,-9.73465 1.05445,-14.61066 -0.0331,-1.08388 0.20102,-2.21813 -0.0953,-3.27273 -0.64653,-1.09237 -2.13943,-1.44215 -3.32226,-1.40234 z m 1.83203,-8.435551 c -1.03562,0.03675 -2.39115,0.387863 -2.55766,1.599818 -0.1208,1.176389 -0.28094,2.590303 0.53462,3.562693 0.88466,0.82272 2.11638,0.0553 2.86444,-0.58125 1.17106,-0.87912 1.27284,-2.674694 0.62539,-3.895714 -0.3079,-0.49276 -0.9051,-0.709271 -1.46679,-0.685547 z" />
      <path
         style="fill:#000000;stroke-width:0.264583"
         d="m 154.81186,132.56118 c -0.65834,-0.82501 -1.1238,-2.11441 -1.1238,-3.1131 0,-0.59888 -0.14429,-1.34893 -0.32064,-1.66679 -0.22704,-0.40923 -0.32972,-2.70176 -0.35176,-7.85396 -0.0171,-4.00182 -0.12626,-8.8263 -0.24253,-10.72106 l -0.21141,-3.44501 0.69326,-0.8239 c 0.63484,-0.75446 0.65654,-0.85434 0.2576,-1.18519 -0.73102,-0.60625 -1.14744,-1.97782 -1.14744,-3.77936 0,-4.511818 1.62451,-7.074459 3.81327,-6.015407 0.3038,0.146994 0.97318,0.335942 1.48752,0.419885 0.51433,0.08394 1.21183,0.346412 1.54998,0.583265 1.43775,1.00704 2.09451,4.462629 1.18987,6.260647 -0.23431,0.46572 -0.83878,1.27787 -1.34326,1.80479 l -0.91724,0.95803 0.90096,0.55683 c 1.69517,1.04767 1.73507,1.4029 1.11621,9.93693 -0.47666,6.57295 -1.31786,14.1461 -1.73542,15.62359 -0.55352,1.95856 -2.79704,3.48508 -3.61517,2.45981 z m 2.16785,-4.32749 c 0.19341,-1.14876 0.4873,-3.99365 0.65308,-6.32198 0.16578,-2.32834 0.41543,-5.66209 0.55479,-7.40834 0.24194,-3.03168 0.35895,-5.91235 0.29341,-7.22339 -0.0349,-0.69896 -1.34993,-1.37557 -2.67344,-1.37557 -1.22204,0 -1.48161,0.80676 -1.0735,3.33658 0.18651,1.15618 0.36737,5.35933 0.41917,9.74129 0.0538,4.54902 0.20594,8.00964 0.37131,8.4446 0.15411,0.40534 0.2802,1.24517 0.2802,1.86629 0,0.62111 0.0814,1.21066 0.1808,1.3101 0.36194,0.36194 0.64981,-0.32419 0.99418,-2.36958 z m 0.41979,-26.73361 c 1.01992,-0.67911 1.31564,-1.17592 1.31564,-2.21025 0,-1.445437 -0.50252,-1.968581 -1.70372,-1.773652 -1.48178,0.24046 -1.73586,0.574518 -1.73586,2.282299 0,2.091083 0.69853,2.650703 2.12394,1.701603 z"
         id="path88" />
    </g>
    <use
       height="100%"
       width="100%"
       transform="translate(5.2912265,3.2736621)"
       id="use1075"
       xlink:href="#g955"
       y="0"
       x="0" />
    <use
       height="100%"
       width="100%"
       transform="translate(3.9335278,-3.9715287)"
       id="use1077"
       xlink:href="#use1075"
       y="0"
       x="0" />
    <use
       height="100%"
       width="100%"
       transform="translate(6.4839654,3.0198892)"
       id="use1079"
       xlink:href="#use1077"
       y="0"
       x="0" />
    <use
       height="100%"
       width="100%"
       transform="translate(5.786074,-2.1189878)"
       id="use1081"
       xlink:href="#use1079"
       y="0"
       x="0" />
    <use
       height="100%"
       width="100%"
       transform="translate(20.695395,-0.03806426)"
       id="use1083"
       xlink:href="#use1081"
       y="0"
       x="0" />
    <use
       height="100%"
       width="100%"
       transform="translate(-6.0525554,3.1087118)"
       id="use1085"
       xlink:href="#use1083"
       y="0"
       x="0" />
    <use
       height="100%"
       width="100%"
       transform="translate(-7.2326067,-1.87791)"
       id="use1087"
       xlink:href="#use1085"
       y="0"
       x="0" />
    <use
       height="100%"
       width="100%"
       transform="translate(-9.9226291,3.705061)"
       id="use1089"
       xlink:href="#use1085"
       y="0"
       x="0" />
    <use
       height="100%"
       width="100%"
       transform="translate(-17.675475,4.0349614)"
       id="use1145"
       xlink:href="#use1077"
       y="0"
       x="0" />
    <use
       height="100%"
       width="100%"
       transform="translate(-17.675475,4.0349614)"
       id="use1147"
       xlink:href="#use1079"
       y="0"
       x="0" />
    <use
       height="100%"
       width="100%"
       transform="translate(-17.675475,4.0349614)"
       id="use1149"
       xlink:href="#use1089"
       y="0"
       x="0" />
    <use
       height="100%"
       width="100%"
       transform="translate(-30.364247,6.9787234)"
       id="use1309"
       xlink:href="#use1075"
       y="0"
       x="0" />
    <use
       height="100%"
       width="100%"
       transform="translate(-30.364247,6.9787234)"
       id="use1311"
       xlink:href="#use1077"
       y="0"
       x="0" />
    <use
       height="100%"
       width="100%"
       transform="translate(-30.364247,6.9787234)"
       id="use1313"
       xlink:href="#use1079"
       y="0"
       x="0" />
    <use
       height="100%"
       width="100%"
       transform="translate(-30.364247,6.9787234)"
       id="use1315"
       xlink:href="#use1081"
       y="0"
       x="0" />
    <use
       height="100%"
       width="100%"
       transform="translate(-30.364247,6.9787234)"
       id="use1317"
       xlink:href="#use1149"
       y="0"
       x="0" />
    <use
       height="100%"
       width="100%"
       transform="translate(-30.364247,6.9787232)"
       id="use1319"
       xlink:href="#use1305"
       y="0"
       x="0" />
    <use
       height="100%"
       width="100%"
       transform="translate(-29.882065,8.7424404)"
       id="use1321"
       xlink:href="#use1307"
       y="0"
       x="0" />
    <use
       height="100%"
       width="100%"
       transform="translate(-22.065782,8.9835398)"
       id="use1303"
       xlink:href="#use1081"
       y="0"
       x="0" />
    <use
       height="100%"
       width="100%"
       transform="translate(-22.065782,8.9835398)"
       id="use1305"
       xlink:href="#use1083"
       y="0"
       x="0" />
    <use
       height="100%"
       width="100%"
       transform="translate(-22.065782,8.9835398)"
       id="use1307"
       xlink:href="#use1085"
       y="0"
       x="0" />
    <use
       height="100%"
       width="100%"
       transform="translate(-7.0042197,16.761687)"
       id="use1301"
       xlink:href="#use1075"
       y="0"
       x="0" />
    <use
       height="100%"
       width="100%"
       transform="translate(11.321825,5.6609114)"
       id="use1386"
       xlink:href="#use1085"
       y="0"
       x="0" />
    <use
       height="100%"
       width="100%"
       transform="translate(11.321825,5.6609114)"
       id="use1388"
       xlink:href="#use1089"
       y="0"
       x="0" />
    <use
       height="100%"
       width="100%"
       transform="translate(11.321825,5.6609114)"
       id="use1390"
       xlink:href="#use1149"
       y="0"
       x="0" />
    <use
       height="100%"
       width="100%"
       transform="translate(11.321825,5.6609114)"
       id="use1392"
       xlink:href="#use1317"
       y="0"
       x="0" />
    <use
       height="100%"
       width="100%"
       transform="translate(11.321825,5.6609114)"
       id="use1394"
       xlink:href="#use1307"
       y="0"
       x="0" />
  </g>
</svg>
